<?xml version="1.0" encoding="UTF-8"?><svg id="Layer_2" xmlns="http://www.w3.org/2000/svg" viewBox="0 0 86.14 68.6"><defs><style>.cls-1{fill:#e2a86b;}.cls-2{fill:#2e3137;}</style></defs><g id="Layer_1-2"><path class="cls-2" d="M40.59,65.92c-2.15,2.38-6.53,3.38-9.51,2.16-.4-.16-1.06-.75-1.39-.78-.44-.04-1.76.54-2.35.64-3.97.71-8.93-.56-12-3.13-.96-.8-1.86-2.31-2.6-2.89-.57-.45-2.11-.9-2.87-1.3C2.54,56.77-.29,49.23,1.3,41.29c.12-.58.76-2.15.72-2.53-.06-.58-1.18-2.75-1.41-3.72-1.81-7.4.5-11.66,6.12-16.02,1.01-.79.52-.96.7-1.96.31-1.66.68-3.08,1.65-4.49,1.95-2.82,5.14-4.12,8.53-4.13C18.79,3.97,22.65.82,27.24.12c2.33-.35,7.28.07,9.48.95,3.31,1.32,5.21,3.63,5.43,7.2.73,11.42-.57,23.64,0,35.1-.35,6,.41,12.43,0,18.39-.1,1.47-.55,3.05-1.56,4.16ZM38.64,41.3v-12.91c-3.36.65-5.15,4.4-5.19,7.53-.02,1.34.89,3.45-1.15,3.83-2.28.42-2.24-2.81-2.18-4.33.12-3.15,1.48-6.11,3.68-8.35-1.87-.2-7.38-4.62-4.67-6.37,2.05-1.32,2.59,1.34,3.75,2.23,1.5,1.15,3.88,1.76,5.76,1.66v-3.81c-2.69.71-5.48-.86-6.54-3.36-1.39-3.26.45-5.43.37-8.48-.12-4.56-2.88-6.53-7.25-4.69-3.39,1.43-4.43,4.6-5.13,7.91-2.57-.31-5.05-.73-7.15,1.11-1.36,1.19-1.74,2.48-2.36,4.11,1.42,0,2.59-.13,4.05.13,2.09.37,3.41,1.88,5.38,1.6.64-.09,1.56-.78,1.81-1.35.33-.77-.62-2.2.7-2.94,1.6-.9,2.66.59,2.77,2.07.2,2.59-1.79,4.7-4.18,5.39,1.01,2.06,1.45,4.64.63,6.83-.95,2.56-3.63,1.76-3.48-.29.08-1.1.66-1.53.47-3.1-.6-4.88-6.01-6.05-9.95-3.99-4.8,2.51-6.17,7.98-4.75,12.93.28.99,1.61,3.26,1.69,3.8.04.29-1.12,3.6-1.26,4.48-.79,5.03.63,9.92,4.63,13.2.26.21,2.18,1.56,2.34,1.4-.46-1.4-.45-6.2.63-7.12.41-.36,1.01-.52,1.55-.43,2.3.42.83,3.32.83,4.82,0,8.43,9.75,12.05,16.59,8,6.48-3.84-.21-11.44.11-16.45.23-3.62,4.13-5.82,7.52-5.04ZM35.52,16.75c.67.81,2.26,1.3,3.1.44l.02-9.41c-.27-2.01-2.06-3.12-3.84-3.72.41,1.52,1.14,3.3,1.17,4.89.04,2.25-1.93,6.03-.45,7.8ZM38.62,44.8c-1.14-.66-3.64-.13-3.96,1.26-.53,2.32,1.75,7.23,2.23,9.81.53,2.86.12,5.72-1.84,7.95l-1.42,1.32c1.74.2,4.65-.88,4.97-2.77l.02-17.58Z"/><path class="cls-2" d="M11.71,27.44c1.65-.24,3.62.57,2.58,2.39-.66,1.17-1.92.6-2.8,1.36-2.03,1.77-1.94,6.85.81,7.99,2.38.98,3.99-.41,6.06-.68,11.46-1.5,13.53,15.3,4.12,17.49-1.29.3-3.63.48-3.7-1.38-.08-1.92,1.73-1.68,2.87-1.93,5.18-1.12,4.07-10.27-.96-10.89-2.94-.36-5.07,1.66-8.81.78-7.23-1.7-6.36-14.25-.17-15.14Z"/><path class="cls-1" d="M80.59,21.53c-.4-.3-2.33-1.28-2.39-1.41,0-.01-.01-.03-.02-.05h0c-.02-.61-.23-1.16-.54-1.62.02-.51.33-1.33.33-1.85.03-2.27-1.5-5.13-3.36-6.41-.51-.35-1.48-.69-2.04-.93v-.02c0-1.44-1.18-2.61-2.63-2.61-.04,0-.08,0-.12,0-.28-.5-.62-1.13-.91-1.47-4.68-5.69-17.35-7.56-21.6-.53-.3.53-.54,1.38-.82,1.85-1.04.18-1.84,1.1-1.84,2.19,0,.87.5,1.61,1.23,1.99.04.06.07.12.08.18l.03,9.42c-1.3.38-2.25,1.58-2.25,3s.93,2.6,2.22,2.99h0v11.68c0,.17-.08.28-.19.37,0,0,0,0,0,0-.08.08-.19.14-.3.21,0,0,0,0-.01,0-.18.16-.34.34-.47.55,0,0,0,0,0,0-.2.33-.31.71-.31,1.12,0,.89.53,1.66,1.29,2.01v10.62c-1.43.4-2.47,1.71-2.47,3.26s1.03,2.84,2.44,3.25c-.36,10.94,14.56,11.2,21.07,5.81.65.42,1.43.66,2.26.66,2.24,0,4.07-1.74,4.18-3.93.37-.16,1.06-.36,1.31-.52,6.04-3.49,10.85-11.38,9.06-18.42-.08-.36-.37-.94-.55-1.45.1-.25.15-.52.15-.8,0-.15-.01-.29-.04-.42.48-.66,1.42-1.84,1.64-2.26,2.75-5.2.23-13.12-4.41-16.51ZM69.94,11.85c.82,0,1.55-.37,2.03-.95h0s.06,0,.09,0c.13.03,1.85.92,2.02,1.06.24.17,1.03,1.22,1.2,1.55.66,1.11.96,2.48.86,3.78-.34-.13-.71-.2-1.09-.2-1.15,0-2.16.61-2.7,1.53-3.63-1.28-7.27-2.62-11.01-3.68.06-.28.09-.58.09-.88,0-.24-.02-.48-.06-.71,1.29-.3,5.09-1.77,6.7-2.27.48.48,1.13.76,1.85.76ZM64.17,33.57l-5.28,2.59c-.08.02-.17.03-.25.02-.59-.79-1.55-1.3-2.61-1.3-1.81,0-3.28,1.45-3.28,3.25,0,.03,0,.06,0,.08l-3.93.88c-.21-.36-.52-.66-.89-.85h0s-.03-.03-.05-.05l-.1-11.93c.72-.2,1.34-.66,1.75-1.27l14.47,5.5c-.12.4-.18.83-.18,1.27,0,.63.13,1.24.36,1.79ZM49.13,40.36l.11-.18c.53.09,3.07-.65,3.82-.68.09.2.22.39.35.57,0,0,0,0,0,0h0c.59.79,1.54,1.31,2.61,1.31.26,0,.5-.03.74-.09.15-.03.3-.07.44-.14.29-.1.56-.25.8-.44,0,0,.01,0,.02,0,.17-.06.34-.07.53.02,3.35,2.63,7,4.9,10.38,7.47.21.16.38.18.48.25-.15.29-.26.61-.31.94l-5.58.62h0c-.03-.12-.06-.23-.1-.35-.03-.11-.07-.21-.12-.31-.04-.09-.08-.18-.13-.28-.07-.14-.15-.27-.24-.39-.03-.05-.06-.09-.1-.14-.05-.07-.1-.13-.15-.19-.05-.06-.1-.12-.15-.17-.78-.86-1.9-1.4-3.15-1.4-.99,0-1.89.34-2.62.89l-7.8-6.63c.09-.21.14-.44.16-.68ZM59.01,39.46c.19-.41.29-.86.29-1.33,0-.23-.02-.45-.07-.67.76-.65,4.39-2.2,5.54-2.82.87,1.15,2.26,1.9,3.83,1.9.16,0,.31,0,.46-.02l2.1,10.02c.02.08.02.17,0,.26-.35.16-.68.37-.95.62l-11.19-7.94ZM68.6,27.03c-.74,0-1.44.17-2.06.46-1.19-1.85-5.86-8.63-6.54-10.22.39-.35.71-.75.95-1.21h0l11,3.7c-.02.14-.03.29-.03.44,0,1.04.51,1.95,1.3,2.51.08.27,0,.66-.43,1.42-.23.36-1.89,3.09-2.06,3.22-.05.05-.11.08-.16.1-.6-.27-1.27-.42-1.97-.42ZM48.7,5.84c3.28-6.32,15.59-4.34,19.21.99.11.17.21.32.28.45-.54.48-.89,1.18-.89,1.95,0,.3.05.59.15.85l-6.48,2.02c-.72-1.39-2.18-2.34-3.87-2.34-1.5,0-2.83.76-3.61,1.91l-4.52-2.11v-.02c.11-.27.18-.56.18-.87,0-.7-.32-1.32-.82-1.73,0-.22.1-.55.38-1.1ZM47.77,10.58s.14-.03.28,0c1.01.23,4.22,2.03,4.87,2.23,0,0,.01.02.02.03-.11.38-.18.79-.18,1.22,0,2.38,1.95,4.3,4.34,4.3.62,0,1.21-.13,1.74-.36l6.59,10.22c-.4.35-.74.76-1,1.23-.02,0-.04-.01-.07-.02l-14.36-5.58c.03-.19.05-.38.05-.58,0-1.43-.97-2.64-2.29-3.01v-9.67ZM47.77,42.26c.12-.05.24-.12.34-.18.75.56,1.56,1.18,2.25,1.75,1.66,1.41,3.68,3.02,5.21,4.47.13.13.24.23.3.32-.48.68-.76,1.51-.76,2.4,0,.45.07.88.2,1.29l-5.43,2.14c-.45-.79-1.21-1.38-2.11-1.61v-10.57ZM65.68,63.85h0c0,.05,0,.08-.02.1-1.16.59-2.26,1.41-3.52,1.87-5.52,2.07-14.8,1.16-14.37-6.44,1.47-.38,2.55-1.71,2.55-3.28v-.03c.03-.08.06-.16.11-.21.06-.07.2-.17.36-.26l.06-.03,5.14-1.98c.78,1.01,2.01,1.66,3.39,1.66.92,0,1.77-.29,2.47-.78h0s.03,0,.05.01l4.08,4.54s0,.03,0,.05c-.59.71-.94,1.63-.94,2.62,0,.79.23,1.54.62,2.17ZM63.6,51.72c.05-.17.09-.35.13-.53l5.39-.5c.32,1.62,1.76,2.85,3.5,2.85,1.97,0,3.57-1.58,3.57-3.53s-1.59-3.54-3.57-3.54c-.05,0-.11,0-.16,0l-2.18-10.24c.75-.28,1.41-.74,1.93-1.33h0s.09.02.14.04l6.7,4.43c-.27.38-.42.84-.42,1.34,0,1.3,1.06,2.36,2.38,2.36.33,0,.64-.06.92-.18.48,2.13.57,3.83.08,5.97-1.08,4.66-4.56,9.14-8.89,11.26-.62-1.52-2.12-2.59-3.88-2.59-.85,0-1.65.25-2.31.69-.02,0-.04-.01-.06-.02l-3.98-4.67c.04-.1.08-.19.12-.28,0,0,0,0,0,0,.21-.49.41-.94.56-1.45,0-.02.01-.04.01-.06M82.58,38.43c-.11.13-.21.22-.3.29-.36-.23-.8-.36-1.27-.36-.36,0-.69.08-1,.22l-6.99-4.69c.04-.19.08-.38.11-.56h0c.17-.49.26-1.01.26-1.55,0-1.44-.65-2.74-1.68-3.61.47-1,2.73-4.75,2.96-4.9.12.01.25.02.37.02.31,0,.6-.04.89-.13.01,0,.03,0,.04,0,.09,0,.18-.02.26-.05.22-.07.4-.19.56-.34.02-.02.05-.03.07-.06.27-.19.51-.42.7-.69h0s.03-.02.05-.03c.63-.26,3.09,2.13,3.55,2.66,2.85,3.32,4.61,10.22,1.39,13.78Z"/></g></svg>