<?xml version="1.0" encoding="UTF-8"?><svg id="Layer_2" xmlns="http://www.w3.org/2000/svg" viewBox="0 0 998.23 327.66"><g id="Layer_1-2"><path d="M212.26,104.99h10.98c-.28-2.91.9-5.59,1.04-8.44s-1.64-13.99.23-15.33c.67-.48,2.24.35,2.76-.84s2.37-13.74,1.9-14.29-3.64,1.05-2.94-1.53c.3-1.12,2.87-.27,4-.52l-4-2.98c5.38,1.19,4.61-2.75,5.52-6.97.34-1.57,3.1-13.64,2.48-13.99-1-.58-3.77,1.34-3.01-2l3.02-.5-3.01-2.49c1.01-.19,3.5.38,3.96-.05.99-.93,4.06-26.02,3.05-26.92-.69-.61-4.61,1.4-4-1.48,3.93-2.13,4.69-1.22,3.99-6.5,3.73-1.06,1.18,4.11,2.03,4.95.36.36,4.08-.48,4.94,1.53-.86,2.02-4.56,1.17-4.93,1.54-1.87,1.83,3.69,22.79,2.95,26.93h4.01s-3.01,2.49-3.01,2.49l3.01,2.49h-3.01c2.42,4.55,1.87,16.71,3.95,20.34.81,1.41,2.85.41,4.06.64l-4,2,3.99.99-3.02,2.5,2.02,14.47h13.99v43.93c3.01-1.03,14.99.69,14.99,4.49v59.41h2.99c.89-2.77-1.02-7.21-.7-9.32.16-1.03,2.92-6.74,3.7-9.16.43-1.35-.72-1.81,1.99-1.49-.85,4.11,3.09,7.34,3.78,10.71.49,2.38-.27,8.19.38,9.11.25.35,6.19,2.59,7.77,3.71,2.21,1.55,3.6,4.2,6.06,5.43v-21.47c0-.61-2.03-2.57-1.98-3.01.09-.77,2.38-.93,2.96-2.26,1.3-3.02,4.1-13.44,4.79-16.94.47-2.4.2-4.84.24-7.25,4.08-.36,2.7,5.77,2.53,8.12l4.45,12.84c1.03-21.12-1.34-43.45-.03-64.44.27-4.36,2.41-9.94,2.15-13.98-.12-1.93-5.93-2.43.9-3.95l-3.01-2.49h4.01s2.03-16.47,2.03-16.47l-3.04-2.5,3.99-.99-4-2c1.24-.05,3.02.2,4.06-.44,1.22-.76,2.44-17.12,3.96-20.02l-3.02-.52,3.01-2.49-3.01-2.49h4c.67-9.04,3.69-17.83,3.01-26.97h-4.01s0-2.99,0-2.99c.98-.23,3.62.31,4.01,0,.69-.54-1.69-6.14,1.98-4.99.18,1.07-.25,4.8,0,4.99,1.1.86,5.21-2.03,4.01,2.99h-4.01c-.91,9.19,3.04,17.8,3,26.97h4.01s-3.01,2.49-3.01,2.49l3.01,2.49-2.99.48c2.04,2.74,2.92,19.46,4.08,20.39.64.51,2.85-.08,3.91.1l-4,2.98c1.13.25,3.69-.6,4,.52.72,2.6-2.55,1.01-2.98,1.51-.55.63,2.25,15.47,2.88,16.38s2.12.58,3.1.58l-3.01,2.49,3.02.5c.75,2.74-1.27,1.62-1.76,2.18-1.29,1.47,1.96,11.49,1.79,14.25l-.04,94.4h-30.97v3h30.97v9.99s5.99,0,5.99,0c.6,1.41-.99,3-.99,3.49v20.47c1.81.23,2.9-1.28,4.29-2.2,21.7-14.36,42.5-30.23,64.06-44.82l46.05-64.86c.89-1.85-2.89-10.79,0-10.91.44-.02,6.93,3.91,7.53,4.71,2.55,3.4,1.99,9.35,3.55,13.17.63,1.55,7.91,10.65,9.12,10.96,1.54.38,12.21-6.82,13.34-8.33,1.68-2.23,1.2-6.49,3.99-8.99,1.09-.97,8.08-4.36,8.94-3.54l-3.55,15,30.79,73.11,49.7,61.67v-101.85c0-.14-2.52.34-2.88-.07-.32-.36-.3-4.56,0-4.86.36-.36,2.43.23,2.78-.12,1.54-1.52-3.24-7.8,5.11-5.93l.06-15.44c-7.75-1.55-.22-5.49-.04-6.22.38-1.53.38-16.92.04-18.74-.27-1.43-3.96,1.1-3.1-3.08.52-2.51,2.79-2.04,3.06-3.15.53-2.14-.57-5.36-.01-7.62.18-.72,1.65-.49,1.95-1.44s-.31-2.62.16-3.15c.42-.48,2.72.49,2.94-.62.53-2.66.04-9.72-.07-12.93-.08-2.19-1.51-4.61-1.01-6.82.16-.71,1.67-.53,1.96-1.41,1.66-5.06,3.03-10.54,4.83-15.99,1.01-3.06-1.57-4.11,3.28-4.79.2-6.35.2-13.73.88-19.98.18-1.72.3-3.44,2.54-3.45,1.05-.02.26,8.85.55,10.45s1.71,2.72,2.01,4.98c.32,2.46-.56,5.8-.12,8,.23,1.15,2.57.18,2.97.59s-.09,3.66.33,5.21c.91,3.37,3.58,11.33,4.84,14.95.29.83,1.78.75,1.93,1.44.5,2.23-.92,4.61-1,6.81-.12,3.21-.6,10.28-.07,12.93.22,1.11,2.52.15,2.94.62.47.53-.13,2.22.16,3.15s1.77.72,1.95,1.44c.56,2.25-.51,5.37.03,7.63.17.69,3.1.35,1.97,4.99-.2.82-1.86.23-2.06,2.1-.42,3.92-.42,13.19,0,17.11.2,1.86,1.86,1.28,2.06,2.1,1.15,4.71-1.86,3.91-2.06,5.75-.48,4.51.51,9.91.07,14.55h5.01c-1.41,7.94,2.06,5.22,2.88,6.05.29.3.31,4.5,0,4.86-.36.41-2.88-.07-2.88.07v50.92h4v-44.93h6.99v-87.87h44.96v87.87c0,.42,7.99-.93,7.99,1.5v43.43c3.35,1.05,5.37-1.04,7.68-1.65.92-.24,2.28.8,3.31.21,4.35-2.5-.25-13.1,1.01-14.54l4.5,2.99c.28.13,1.49-2.35,1.49-2.49v-74.39h55.95v107.34c0,3.5,3.75,5.44,6.99,4.49V85.02h59.45c.16,0,2.5-1.75,2.5.5v116.32c0,.11,1.49-.29,2.21.06.93.45.78,1.86,1.24,1.83.77-.06,1.85-1.05,2.96-.99s-.1,2.62,1.59,2.1v-91.86h60.45c3.32,0,.46,10.64.49,12.48.5,27.87,2.59,56.83,1.06,84.93-.09,1.69-.27,2.92-1.06,4.43,3.93.34,8.44-.57,12.27.23,5.8,1.21,14.76,8.74,20.67,10.29,2.01.53,6.76.25,7.03.47,1.22,1.01-.31,4.21-3,2.99-1.07,5.98,5.51-.29,3.99,7h4.01s0,33.94,0,33.94c2.24-.24.91-2.58,1.96-3.47,3.22-2.75,6.98-1.43,9.54,1.45.2-.58.06-2.6-.12-2.98-.44-.93-3.03-2.25-1.89-3,4.75.9,7.69,1.54,6.49,6.99,6.26-2.38,8.08-.09,7.98,5.99l-4.98-1.01c3.09.72,6.66,4,6.01,7.35-.13.65-1.54.62-1.95,1.4-.96,1.82-.05,4.99-3.06,4.23.7-12.05-3.54-3.48-5,2l2.51.98-1.51-2.97c5.06-1.34,3.41,4.31,4.04,4.95.76.78,3.98-2.21,4.9,3.6.07.46-1.51.35-1.69.58-.23.3,1.58,5.4-1.76,6.84l-.5-3.99-4.99,3.98v-5.97c-2.34,5.55-6.12,9.46-4.57,16.03.4,1.72,3.12,6.73,4.56,7.43,3.35,1.63,16.7.46,21.29,1.69,3.7,1.07,2.05,5.8,1.7,5.8H1.94c-1.94,0-3.23-4.7.16-5.84l35.31-2.16c-2.53-7.98-7.32-15.2-7-23.95l-2.94,9.59.95,3.37c-1.84,1.79-5.61-6.2-5-7.99l-2.98,1.01,1.5-5.97-3.5,3.97c-.77-7.64-1.91-13.69,7.97-13.47-1.35-5.06-4.21.29-5.97-3.49,1.94.13,4.73-2.16,6.36-1.83,1.41.28,2.37,3.11,4,2.75,3.14-.69,2.5-7.35,9.62-.45l-4.99,2.49c4.22-.96,7.07,1.74,10.99,2.01v-15.48c0-1.55,4.55-1.73,6-1.5v-12.99s6.99,0,6.99,0v-9.99s5.99,0,5.99,0c.49-.49-.47-7.49-.03-9.3.26-1.07,3.02-1.55,3.02-2.19v-65.4h8s0,3.99,0,3.99h17.98v54.92l5.56.93.43,12.05h19.98v-5s11.99,0,11.99,0v-22.97h9.99v-64.9h4v-14.98h11.99c-2.66-8.49,7.99-5.36,7.99-5.99v-43.93h20.98v17.47c0,1.94,6.38,1.58,8,1.49v14.99c1.86.08,9.99-.71,9.99,1.49v92.36c1.21-.7,6.99-6.01,6.99-6.49v-101.35ZM618.9,95.01c1.74-14.49-7.76-14.44-6,0h6ZM262.22,86.02c-2.77,0-7.14-.96-6.99,2.99h6.99s0-2.99,0-2.99ZM656.86,90.02h-3.99v1.99h3.99v-1.99ZM661.85,90.02h-2.99v1.99h2.99v-1.99ZM667.85,90.02h-3.99v1.99h3.99v-1.99ZM672.84,90.02h-2.99v1.99h2.99v-1.99ZM678.84,90.02h-3.99v1.99h3.99v-1.99ZM683.83,90.02h-2.99v1.99h2.99v-1.99ZM689.83,90.02h-3.99v1.99h3.99v-1.99ZM262.22,91.02c-2.77,0-7.14-.96-6.99,2.99h6.99s0-2.99,0-2.99ZM262.22,96.01c-2.77,0-7.14-.96-6.99,2.99h6.99s0-2.99,0-2.99ZM656.86,98.01h-3.99v1.99h3.99v-1.99ZM661.85,98.01h-2.99v1.99h2.99v-1.99ZM667.85,98.01h-3.99v1.99h3.99v-1.99ZM672.84,98.01h-2.99v1.99h2.99v-1.99ZM678.84,98.01h-3.99v1.99h3.99v-1.99ZM683.83,98.01h-2.99v1.99h2.99v-1.99ZM689.83,98.01h-3.99v1.99h3.99v-1.99ZM656.86,105c-1.86-.26-3.46,0-3.99,1.98h3.99s0-1.98,0-1.98ZM661.85,105h-2.99v1.99h2.99v-1.99ZM667.85,106.98l-1.51-1.98-2.48,1.5,3.99.49ZM672.84,105h-2.99v1.99h2.99v-1.99ZM678.84,106.98l-1.51-1.98-2.48,1.5,3.99.49ZM683.83,104.99h-2.98v1.99s2.98,0,2.98,0v-1.99ZM689.83,106.98c-.53-1.99-2.13-2.24-3.99-1.98v1.99s3.99,0,3.99,0ZM193.27,105.99h-4.99v1.99h4.99v-1.99ZM193.27,109.99h-4.99v.98h4.99v-.98ZM193.27,112.98h-4.99v1.99h4.99v-1.99ZM656.86,112.98h-3.99v1.99h3.99v-1.99ZM661.85,112.98h-2.99v1.99h2.99v-1.99ZM667.85,112.98h-3.99v1.99h3.99v-1.99ZM672.84,112.98h-2.99v1.99h2.99v-1.99ZM678.84,112.98h-3.99v1.99h3.99v-1.99ZM683.83,112.98h-2.99v1.99h2.99v-1.99ZM689.83,112.98h-3.99v1.99h3.99v-1.99ZM193.27,115.98h-4.99v1.99h4.99v-1.99ZM193.27,119.98h-4.99v.98h4.99v-.98ZM656.86,120.97h-3.99v1.99h3.99v-1.99ZM661.85,120.97h-2.99v1.99h2.99v-1.99ZM667.85,120.97h-3.99v1.99h3.99v-1.99ZM672.84,120.97h-2.99v1.99h2.99v-1.99ZM678.84,120.97h-3.99v1.99h3.99v-1.99ZM683.83,120.97h-2.99v1.99h2.99v-1.99ZM689.83,120.97h-3.99v1.99h3.99v-1.99ZM610.9,121.96h-3.99v5h3.99v-5ZM617.9,121.96h-5.01v5h5.01v-5ZM624.9,121.96h-5.01v5h5.01v-5ZM193.27,122.97h-4.99v.98h4.99v-.98ZM193.27,125.96h-4.99v1.99h4.99v-1.99ZM792.24,126.96v1c.65-.33.65-.67,0-1ZM796.24,126.96v1c.65-.33.65-.67,0-1ZM832.21,126.96v1c.65-.33.65-.67,0-1ZM656.86,128.97c-2.13-.46-3.1-1.72-3.99.98h3.99s0-.98,0-.98ZM662.86,129.94c-.33-2.05-2.43-1.21-3.99-1.99v1.99s3.99,0,3.99,0ZM683.83,127.96c-1.56.77-3.65-.06-3.99,1.99h3.99s0-1.99,0-1.99ZM193.27,128.96h-4.99v1.99h4.99v-1.99ZM667.85,128.96h-3.99v.98h3.99v-.98ZM673.84,128.96h-3.99v.98h3.99v-.98ZM678.84,128.96h-3.99v.98h3.99v-.98ZM689.83,128.96h-3.99v.98h3.99v-.98ZM471.53,129.95v1c.65-.33.65-.67,0-1ZM792.73,133.94v-2.99h-.98v2.99h.98ZM796.73,133.94v-2.99h-.98v2.99h.98ZM832.7,133.94v-2.99h-.98v2.99h.98ZM836.69,133.94v-2.99h-.98v2.99h.98ZM459.73,162.6l11.29-30.64-15.97,32.45c.68,1.4,4.43-1.47,4.68-1.81ZM193.27,132.96h-4.99v.98h4.99v-.98ZM463.54,133.97l-1.49,1.49.47.47,1.49-1.49-.47-.47ZM465.53,133.95v1c.65-.33.65-.67,0-1ZM472.02,136.94v-1.99h-.98v1.99h.98ZM792.73,137.94v-2.99h-.98v2.99h.98ZM800.73,137.94v-2.99h-.98v2.99h.98ZM828.7,137.94v-2.99h-.98v2.99h.98ZM193.27,135.95h-4.99v1.99h4.99v-1.99ZM440.06,175.88l5.84-4.64,18.64-35.29-24.48,39.92ZM466.53,135.94v1c.65-.33.65-.67,0-1ZM656.86,135.95h-3.99v1.99h3.99v-1.99ZM661.85,135.95h-2.99v1.99h2.99v-1.99ZM667.85,135.95h-3.99v1.99h3.99v-1.99ZM672.84,135.95h-2.99v1.99h2.99v-1.99ZM678.84,135.95h-3.99v1.99h3.99v-1.99ZM683.83,135.95h-2.99v1.99h2.99v-1.99ZM689.83,135.95h-3.99v1.99h3.99v-1.99ZM836.69,137.94v-1.99h-.98v1.99h.98ZM428.07,183.86c.96.88,8.61-5.69,9.42-7.05l24.05-39.85-33.48,46.9ZM467.04,156.91l8.44-5.94-1.47-14.03c-1.89.31-1.63,2.11-2.11,3.38-1.99,5.34-2.93,11.22-4.87,16.59ZM494.01,144.93c3.85.58,6.83-4.9,7.98-7.98l-7.98,7.98ZM164.3,137.94h-14.99v1h14.99v-1ZM448.05,169.88c2.5.19,4.03-2.52,5.19-4.29,5.08-7.75,8.37-19.25,12.78-27.65l-17.98,31.94ZM462.04,159.9c1.88.37,2.49-.84,3.22-2.27,2.53-4.97,3.73-14.16,5.77-19.68l-8.98,21.95ZM193.27,138.94h-4.99v1.99h4.99v-1.99ZM514.49,139.94v1c.65-.33.65-.67,0-1ZM792.73,142.93v-2.99h-.98v2.99h.98ZM796.73,142.93v-2.99h-.98v2.99h.98ZM800.73,142.93v-2.99h-.98v2.99h.98ZM828.7,142.93v-2.99h-.98v2.99h.98ZM832.7,142.93v-2.99h-.98v2.99h.98ZM836.69,142.93v-2.99h-.98v2.99h.98ZM514.98,169.89l-3.98-28.95,1.01,25.44,2.97,3.51ZM515,141.94l10.28,41.14,15.2,19.75-25.48-60.88ZM193.27,142.94h-4.99v.98h4.99v-.98ZM522.97,179.88c-2.87-11.29-5.63-22.64-8.5-33.94-.29-1.14.05-3.24-1.47-3,3.63,11.61-.35,29.16,9.97,36.94ZM656.86,143.94l-3.99.49c1.08,1.54,2.14,1.74,3.99,1.5v-1.99ZM662.86,143.94h-3.99s0,1.99,0,1.99c1.56-.77,3.65.06,3.99-1.99ZM667.85,143.94l-3.99.49,2.48,1.5,1.51-1.98ZM672.84,143.94h-2.99v1.99h2.98v-1.99ZM678.84,143.94l-3.99.49,2.48,1.5,1.51-1.98ZM683.83,143.94h-2.99v1.99h2.98v-1.99ZM689.83,143.94h-3.99s0,1.99,0,1.99c1.56-.77,3.65.06,3.99-1.99ZM828.7,147.92v-3.98h-.98v3.98h.98ZM792.73,146.92v-1.99h-.98v1.99h.98ZM796.73,146.92v-1.99h-.98v1.99h.98ZM800.73,146.92v-1.99h-.98v1.99h.98ZM832.7,146.92v-1.99h-.98v1.99h.98ZM836.69,146.92v-1.99h-.98v1.99h.98ZM193.27,145.93h-4.99v1.99h4.99v-1.99ZM510.98,164.9c-.51-5.18-.8-10.26-.99-15.49-.04-1.2.74-3.71-.99-3.47-1.5,7.19-6.47,14.2,1.98,18.96ZM725.79,147.92v-1.99h-.98v1.99h.98ZM770.76,147.92v-1.99s-1.99,1.5-1.99,1.5l1.99.49ZM729.79,146.94h-1.99v.98h1.99v-.98ZM766.27,146.93v1c.65-.33.65-.67,0-1ZM818.72,146.93h-9.99v91.36c0,2.17,9.99,2.17,9.99,0v-91.36ZM193.27,148.93h-4.99v1.99h4.99v-1.99ZM796.73,151.92v-2.99h-.98v2.99h.98ZM800.73,151.92v-2.99h-.98v2.99h.98ZM832.7,151.92v-2.99h-.98v2.99h.98ZM836.69,151.92v-2.99h-.98v2.99h.98ZM725.79,152.91v-2.99h-.98v2.99h.98ZM766.76,161.9c-.06-2.81.13-5.67,0-8.49-.05-1.21.76-3.71-.99-3.48.06,2.81-.13,5.67,0,8.49.05,1.21-.76,3.71.99,3.48ZM770.76,152.91l-.49-2.99-1.49,1.51v1.48s1.98,0,1.98,0ZM149.31,150.93c-1.09-1.09-3.08.9-1.99,1.99s3.08-.9,1.99-1.99ZM152.31,152.91v-1.99s-1.99,1.5-1.99,1.5l1.99.49ZM156.3,150.93c-1.09-1.09-3.08.9-1.99,1.99s3.08-.9,1.99-1.99ZM159.3,152.91v-1.99s-1.99,1.5-1.99,1.5l1.99.49ZM163.3,150.93c-1.09-1.09-3.08.9-1.99,1.99s3.08-.9,1.99-1.99ZM656.86,150.93h-3.99v1.99h3.99v-1.99ZM661.85,150.93h-2.99v1.99h2.99v-1.99ZM667.85,150.93h-3.99v1.99h3.99v-1.99ZM672.84,150.93h-2.99v1.99h2.99v-1.99ZM678.84,150.93h-3.99v1.99h3.99v-1.99ZM683.83,150.93h-2.99v1.99h2.99v-1.99ZM689.83,152.91c-.53-1.99-2.13-2.24-3.99-1.98v1.99s3.99,0,3.99,0ZM729.79,150.93c-1.09-1.09-3.08.9-1.99,1.99s3.08-.9,1.99-1.99ZM487,156.91c.6-.44,1.47-4.52-.5-4.98h-1.48s0,4.98,0,4.98c.61-.07,1.76.16,1.98,0ZM905.63,154.91v-2.99h-.98v2.99h.98ZM909.63,154.91v-2.99h-.98v2.99h.98ZM193.27,152.93h-4.99v.98h4.99v-.98ZM476.02,154.9c.12-.17.35-2.1-.49-1.97-1.02,1.44-11.36,6.87-9.49,8.98,2.69-1.76,5.08-3.92,7.51-6.01.85-.73,2.38-.89,2.46-1ZM491.51,152.92v1c.65-.33.65-.67,0-1ZM858.68,152.92c-1.09-1.09-3.08.9-1.99,1.99s3.08-.9,1.99-1.99ZM862.68,152.92c-1.09-1.09-3.08.9-1.99,1.99s3.08-.9,1.99-1.99ZM725.79,157.91v-3.98h-.98v3.98h.98ZM732.79,161.9c-.55-1.97,1.29-7.1-.98-7.98.55,1.97-1.29,7.1.98,7.98ZM763.76,156.91v-1.48s-1.98-1.51-1.98-1.51v2.99s1.98,0,1.98,0ZM770.76,156.91l-.49-2.99-1.49,1.51v1.48s1.98,0,1.98,0ZM792.73,156.91v-2.99h-.98v2.99h.98ZM796.73,156.91v-2.99h-.98v2.99h.98ZM828.7,156.91v-2.99h-.98v2.99h.98ZM832.7,156.91v-2.99h-.98v2.99h.98ZM490.51,154.92v1c.65-.33.65-.67,0-1ZM494,154.92c-.29-.33-2.47-.6-1.9,1.39.18.64,2.43,6.27,3.9,4.59.21-.24-1.8-5.75-2.01-5.99ZM495.5,154.93l-.47.47,1.49,1.49.47-.47-1.49-1.49ZM729.79,154.92c-1.09-1.09-3.08.9-1.99,1.99s3.08-.9,1.99-1.99ZM193.27,155.92h-4.99v1.99h4.99v-1.99ZM477.02,155.92l-11.66,8.29-1.32,3.68,12.98-11.97ZM486.02,160.91c.43.51,3.99-2.85,2.98-4.99h-.98s-2,4.99-2,4.99ZM901.64,158.91v-2.99h-.98v2.99h.98ZM905.63,158.91v-2.99h-.98v2.99h.98ZM149.31,156.92c-1.09-1.09-3.08.9-1.99,1.99s3.08-.9,1.99-1.99ZM152.31,156.92l-1.99.49,1.98,1.5v-1.99ZM156.3,156.92c-1.09-1.09-3.08.9-1.99,1.99s3.08-.9,1.99-1.99ZM159.3,156.92l-1.99.49,1.98,1.5v-1.99ZM163.3,156.92c-1.09-1.09-3.08.9-1.99,1.99s3.08-.9,1.99-1.99ZM858.68,156.92c-1.09-1.09-3.08.9-1.99,1.99s3.08-.9,1.99-1.99ZM862.68,156.92c-1.09-1.09-3.08.9-1.99,1.99s3.08-.9,1.99-1.99ZM866.67,156.92c-1.09-1.09-3.08.9-1.99,1.99s3.08-.9,1.99-1.99ZM909.63,158.91v-1.99h-.98v1.99h.98ZM494,164.9c-.07-1.98-.96-6.09-2.98-6.98l2.98,6.98ZM737.79,160.9l-.49-2.99-1.49,1.51v1.48s1.98,0,1.98,0ZM758.76,160.9v-2.99h-.98v2.99h.98ZM792.73,160.9v-2.99h-.98v2.99h.98ZM796.73,160.9v-2.99h-.98v2.99h.98ZM800.73,160.9v-2.99h-.98v2.99h.98ZM828.7,160.9v-2.99h-.98v2.99h.98ZM832.7,160.9v-2.99h-.98v2.99h.98ZM836.69,160.9v-2.99h-.98v2.99h.98ZM193.27,158.91h-4.99v1.99h4.99v-1.99ZM477.01,158.91l-13.87,11.59-5.61,19.35,19.98-22.96c1.37-2.66.08-5.35-.5-7.97ZM656.86,158.91h-3.99v1.99h3.99v-1.99ZM661.85,158.91h-2.99v1.99h2.99v-1.99ZM667.85,158.91h-3.99v1.99h3.99v-1.99ZM672.84,158.91h-2.99v1.99h2.99v-1.99ZM678.84,158.91h-3.99v1.99h3.99v-1.99ZM683.83,158.91h-2.99v1.99h2.99v-1.99ZM689.83,158.91h-3.99v1.99h3.99v-1.99ZM725.79,161.9v-2.99h-.98v2.99h.98ZM729.79,158.91c-1.09-1.09-3.08.9-1.99,1.99s3.08-.9,1.99-1.99ZM763.76,158.91h-1.99s0,2.99,0,2.99l1.98-1.51v-1.48ZM770.76,158.91h-1.99s0,1.48,0,1.48l1.49,1.51.49-2.99ZM489.02,172.88c4.24,3.11,4.42-11.31.49-12.96-4.2.63-1.05,12.54-.49,12.96ZM858.68,160.91c-1.09-1.09-3.08.9-1.99,1.99s3.08-.9,1.99-1.99ZM862.68,160.91c-1.09-1.09-3.08.9-1.99,1.99s3.08-.9,1.99-1.99ZM866.67,160.91c-1.09-1.09-3.08.9-1.99,1.99s3.08-.9,1.99-1.99ZM901.64,163.9v-2.99h-.98v2.99h.98ZM905.63,163.9v-2.99h-.98v2.99h.98ZM909.63,162.9v-1.99h-.98v1.99h.98ZM153.31,163.89l-1.5-1.97-1.49,1.48,2.99.49ZM159.3,163.9v-1.99s-1.99,1.5-1.99,1.5l1.99.49ZM163.3,163.89l-1.99-1.99v1.99s1.99,0,1.99,0ZM464.03,161.91c-1.24-1.27-4.53,3.19-3.98,4.99,1.41-.45,4.94-4.01,3.98-4.99ZM510.98,170.89c.36-4.03-2.95-6.49-5.5-8.96l5.5,8.96ZM149.31,162.91h-1.99v.98h1.99v-.98ZM156.3,162.91h-1.99v.98h1.99v-.98ZM193.27,162.91h-4.99v.98h4.99v-.98ZM725.79,165.89v-2.99h-.98v2.99h.98ZM729.79,162.91h-1.99v2.99h1.99v-2.99ZM732.79,165.89v-2.99h-.98v2.99h.98ZM737.79,162.91h-1.99s0,1.48,0,1.48l1.49,1.51.49-2.99ZM758.76,165.89v-2.99h-.98v2.99h.98ZM763.76,162.91h-1.99v2.99h1.99v-2.99ZM766.76,165.89v-2.99h-.98v2.99h.98ZM770.76,162.91h-1.99v2.99h1.99v-2.99ZM792.73,165.89v-2.99h-.98v2.99h.98ZM796.73,165.89v-2.99h-.98v2.99h.98ZM800.73,165.89v-2.99h-.98v2.99h.98ZM828.7,165.89v-2.99h-.98v2.99h.98ZM832.7,165.89v-2.99h-.98v2.99h.98ZM836.69,165.89v-2.99h-.98v2.99h.98ZM452.05,172.89c2.89-2.2,6.71-3.78,6.49-7.97-2.64,2.3-6.46,3.83-6.49,7.97ZM858.68,164.91h-1.99v2.99h1.99v-2.99ZM862.68,164.91h-1.99v2.99h1.99v-2.99ZM866.67,164.91h-1.99v2.99h1.99v-2.99ZM901.64,167.89v-2.99h-.98v2.99h.98ZM905.63,167.89v-2.99h-.98v2.99h.98ZM909.63,167.89v-2.99h-.98v2.99h.98ZM193.27,165.9h-4.99v1.99h4.99v-1.99ZM511.98,177.88c-.23-4.36-3.94-8.97-6.98-11.98.59,4.14,4.17,8.89,6.98,11.98ZM656.86,166.9h-3.99v1.99h3.99v-1.99ZM661.85,166.9h-2.99v1.99h2.99v-1.99ZM667.85,166.9h-3.99v1.99h3.99v-1.99ZM672.84,166.9h-2.99v1.99h2.99v-1.99ZM678.84,166.9h-3.99v1.99h3.99v-1.99ZM683.83,166.9h-2.99v1.99h2.99v-1.99ZM689.83,166.9h-3.99v1.99h3.99v-1.99ZM725.79,169.89v-2.99h-.98v2.99h.98ZM729.79,166.9h-1.99v2.99h1.99v-2.99ZM732.79,169.89v-2.99h-.98v2.99h.98ZM737.79,166.9h-1.99v2.99h1.99v-2.99ZM758.76,169.89v-2.99h-.98v2.99h.98ZM763.76,166.9h-1.99v2.99h1.99v-2.99ZM766.76,169.89v-2.99h-.98v2.99h.98ZM770.76,166.9h-1.99v2.99h1.99v-2.99ZM792.73,169.89v-2.99h-.98v2.99h.98ZM800.73,169.89v-2.99h-.98v2.99h.98ZM828.7,169.89v-2.99h-.98v2.99h.98ZM836.69,169.89v-2.99h-.98v2.99h.98ZM149.31,167.9c-1.09-1.09-3.08.9-1.99,1.99s3.08-.9,1.99-1.99ZM153.31,169.88l-1.5-1.97-1.49,1.48,2.99.49ZM156.3,167.9c-1.09-1.09-3.08.9-1.99,1.99s3.08-.9,1.99-1.99ZM159.3,169.89v-1.99s-1.99,1.5-1.99,1.5l1.99.49ZM163.3,167.9c-1.09-1.09-3.08.9-1.99,1.99s3.08-.9,1.99-1.99ZM462.03,167.9c-1.2-1.2-5,2.85-3.98,4.99,1.41-.45,4.95-4.02,3.98-4.99ZM479.01,167.9l-22.4,25.04-5.08,16.88,26.95-36.96.52-4.96ZM503.99,169.89v-1.99s-1.99,1.5-1.99,1.5l1.99.49ZM193.27,168.9h-4.99v1.99h4.99v-1.99ZM901.64,171.89v-2.99h-.98v2.99h.98ZM905.63,171.89v-2.99h-.98v2.99h.98ZM909.63,171.89v-2.99h-.98v2.99h.98ZM858.68,169.9c-1.09-1.09-3.08.9-1.99,1.99s3.08-.9,1.99-1.99ZM862.68,169.9c-1.09-1.09-3.08.9-1.99,1.99s3.08-.9,1.99-1.99ZM866.67,169.9c-1.09-1.09-3.08.9-1.99,1.99s3.08-.9,1.99-1.99ZM451.05,170.9c-4.66.51-6.55,4.97-7.5,8.96,3.64-2.45,6.05-4.68,7.5-8.96ZM505.01,170.9c.29,5.94,4.42,11.93,7.49,16.95l-.97-7.01-6.53-9.94ZM515.98,177.88c.28-2.2-.76-6.03-2.98-6.98-.28,2.2.76,6.03,2.98,6.98ZM725.79,173.88v-2.99h-.98v2.99h.98ZM729.79,170.9h-1.99v2.99h1.99v-2.99ZM732.79,173.88v-2.99h-.98v2.99h.98ZM737.79,170.9h-1.99v2.99h1.99v-2.99ZM758.76,173.88v-2.99h-.98v2.99h.98ZM763.76,170.9h-1.99v2.99h1.99v-2.99ZM766.76,173.88v-2.99h-.98v2.99h.98ZM770.76,170.9h-1.99v2.99h1.99v-2.99ZM456.03,171.89c-3.2,2.59-7.61,4.19-7.49,8.97,3.22-2.09,7.15-4.73,7.49-8.97ZM502.99,179.87l-1.98-7.98c.1,2.23-.64,6.96,1.98,7.98ZM792.73,174.88v-2.99h-.98v2.99h.98ZM796.73,174.88v-2.99h-.98v2.99h.98ZM800.73,174.88v-2.99h-.98v2.99h.98ZM828.7,174.88v-2.99h-.98v2.99h.98ZM832.7,174.88v-2.99h-.98v2.99h.98ZM836.69,174.88v-2.99h-.98v2.99h.98ZM869.67,174.88v-2.99h-.98v2.99h.98ZM897.64,174.88v-2.99h-.98v2.99h.98ZM193.27,172.9h-4.99v.98h4.99v-.98ZM448.04,201.84c1.54-4.35,5.28-5.77,7.21-10.28,2.48-5.79,3.42-12.65,5.3-18.66l-4.74,4.24c-2.03,7.5-5.7,14.56-8.07,21.9-.3.92-1.6,3.03.3,2.79ZM607.9,172.88h-3.99v5h3.99v-5ZM614.91,172.88h-5c-.52,4.17.78,5.53,5,5v-5ZM620.89,172.88h-3.99v5h3.99v-5ZM627.89,172.88h-5c-.52,4.17.78,5.53,5,5v-5ZM149.31,173.89c-1.09-1.09-3.08.9-1.99,1.99s3.08-.9,1.99-1.99ZM152.31,173.89l-1.99.49,1.98,1.5v-1.99ZM156.3,173.89c-1.09-1.09-3.08.9-1.99,1.99s3.08-.9,1.99-1.99ZM159.3,173.89l-1.99.49,1.98,1.5v-1.99ZM163.3,173.9h-1.99s0,1.99,0,1.99l1.99-1.99ZM446.96,257.69c10.61-26.1,23.77-51.26,33.51-77.67l-.46-6.14-30.47,41.93-11.55,39.34,8.96,2.53ZM858.68,173.89c-1.09-1.09-3.08.9-1.99,1.99s3.08-.9,1.99-1.99ZM862.68,173.89c-1.09-1.09-3.08.9-1.99,1.99s3.08-.9,1.99-1.99ZM866.67,173.89c-1.09-1.09-3.08.9-1.99,1.99s3.08-.9,1.99-1.99ZM901.64,175.88v-1.99h-.98v1.99h.98ZM905.63,175.88v-1.99h-.98v1.99h.98ZM909.63,175.88v-1.99h-.98v1.99h.98ZM725.79,177.88v-2.99h-.98v2.99h.98ZM729.79,174.89h-1.99v2.99h1.99v-2.99ZM732.79,177.88v-2.99h-.98v2.99h.98ZM737.79,174.89h-1.99v2.99h1.99v-2.99ZM758.76,177.88v-2.99h-.98v2.99h.98ZM763.76,174.89h-1.99v2.99h1.99v-2.99ZM766.76,177.88v-2.99h-.98v2.99h.98ZM770.76,174.89h-1.99v2.99h1.99v-2.99ZM193.27,175.89h-4.99c-1,3.25,4.03,2.64,4.99,0ZM432.07,188.86c4.72-3.59,9.43-6.62,10.49-12.96-4.83,3.23-8.75,7.26-10.49,12.96ZM792.73,178.88v-2.99h-.98v2.99h.98ZM796.73,178.88v-2.99h-.98v2.99h.98ZM800.73,178.88v-2.99h-.98v2.99h.98ZM828.7,178.88v-2.99h-.98v2.99h.98ZM832.7,178.88v-2.99h-.98v2.99h.98ZM836.69,178.88v-2.99h-.98v2.99h.98ZM513.98,205.83l-1.46-14.01-8.52-14.94.48,8,9.5,20.95ZM869.67,178.88v-1.99h-.98v1.99h.98ZM897.64,178.88v-1.99h-.98v1.99h.98ZM516.98,186.86c.42-3.57-.52-7.28-3.98-8.98-.38,1.71.59,2.91,1.13,4.35.44,1.15,1.55,4.43,2.84,4.63ZM525.97,191.86c-.41-5.65-3.26-10.71-7.97-13.98-.35,5.32,4.7,10.09,7.97,13.98ZM858.68,177.89c-1.09-1.09-3.08.9-1.99,1.99s3.08-.9,1.99-1.99ZM862.68,177.89c-1.09-1.09-3.08.9-1.99,1.99s3.08-.9,1.99-1.99ZM866.67,177.89c-1.09-1.09-3.08.9-1.99,1.99s3.08-.9,1.99-1.99ZM901.64,180.87v-2.99h-.98v2.99h.98ZM905.63,180.87v-2.99h-.98v2.99h.98ZM909.63,179.87v-1.99h-.98v1.99h.98ZM153.31,180.87l-1.5-1.97-1.49,1.48,2.99.49ZM159.3,180.87v-1.99s-1.99,1.5-1.99,1.5l1.99.49ZM163.3,180.87l-1.99-1.99v1.99s1.99,0,1.99,0ZM193.27,178.88h-4.99v1.99h4.99v-1.99ZM447.04,178.88c-4.37,3.22-8.56,6.18-9.49,11.96,3.66-3.89,8.91-5.9,9.49-11.96ZM453.55,178.9l-8.71,8.26-15.29,34.64,14.7-17.25,9.29-25.65ZM501.99,184.87l-1-5.98h-.98s1,5.98,1,5.98h.98ZM725.79,181.87v-2.99h-.98v2.99h.98ZM729.79,178.88h-1.99v2.99h1.99v-2.99ZM732.79,181.87v-2.99h-.98v2.99h.98ZM737.79,178.88h-1.99v2.99h1.99v-2.99ZM758.76,181.87v-2.99h-.98v2.99h.98ZM763.76,178.88h-1.99v2.99h1.99v-2.99ZM766.76,181.87v-2.99h-.98v2.99h.98ZM770.76,178.88h-1.99v2.99h1.99v-2.99ZM149.31,179.89h-1.99v.98h1.99v-.98ZM156.3,179.89h-1.99v.98h1.99v-.98ZM792.73,183.87v-2.99h-.98v2.99h.98ZM796.73,183.87v-2.99h-.98v2.99h.98ZM828.7,183.87v-2.99h-.98v2.99h.98ZM832.7,183.87v-2.99h-.98v2.99h.98ZM869.67,183.87v-2.99h-.98v2.99h.98ZM873.66,183.87v-2.99h-.98v2.99h.98ZM893.64,183.87v-2.99h-.98v2.99h.98ZM897.64,183.87v-2.99h-.98v2.99h.98ZM607.9,181.87h-3.99v5h3.99v-5ZM614.91,181.87h-5.01v5h5.01v-5ZM620.89,181.87h-3.99v5h3.99v-5ZM627.89,181.87c-6.8-.89-6.93,5.85,0,5v-5ZM654.86,181.88h-4.99v.98h4.99v-.98ZM858.68,181.88h-1.99v2.99h1.99v-2.99ZM862.68,181.88h-1.99v2.99h1.99v-2.99ZM866.67,181.88h-1.99v2.99h1.99v-2.99ZM901.64,184.87v-2.99h-.98v2.99h.98ZM905.63,184.87v-2.99h-.98v2.99h.98ZM909.63,184.87v-2.99h-.98v2.99h.98ZM193.27,182.88h-4.99v.98h4.99v-.98ZM288.18,182.88c-2.39-1.83-3.37,4.94-2.98,5.98h3.99l-1.01-5.98ZM423.07,196.85c-3.77,3.9-7.74,6.2-10.98,9.49-4.08,4.15-6.54,10.94-10.98,14.98,1.72-.44,4.05-2.37,5.45-3.53,2.29-1.89,3.41-4.51,6.52-4.97-8.95,9.74-21.05,17.98-27.18,30.25-.46.93-1.12,1.4-.79,2.7,3.29-.72,6.93,2.39,9.48,0l20.49-32.45c.05-.84-1.35-.59-1.99-.49,4.62-5.03,8.18-9.8,11.98-15.48.05-.84-1.35-.59-1.99-.49,4.04-4.18,8.01-8.25,9.98-13.98-8.18,3.82-11.65,10.74-16.96,17.48,2.88-.06,4-3.05,6.98-3.5ZM725.79,185.86v-2.99h-.98v2.99h.98ZM729.79,185.86v-1.48s-1.98-1.51-1.98-1.51v2.99s1.98,0,1.98,0ZM732.79,194.85c-.06-2.81.13-5.67,0-8.49-.05-1.21.76-3.71-.99-3.48.06,2.81-.13,5.67,0,8.49.05,1.21-.76,3.71.99,3.48ZM737.79,182.88h-1.99v2.99h1.99v-2.99ZM758.76,185.86v-2.99h-.98v2.99h.98ZM763.76,185.86v-1.48s-1.98-1.51-1.98-1.51v2.99s1.98,0,1.98,0ZM766.76,185.86v-2.99h-.98v2.99h.98ZM770.76,185.86l-.49-2.99-1.49,1.51v1.48s1.98,0,1.98,0ZM87.37,184.87h-13.99v1h13.99v-1ZM149.31,184.88c-1.09-1.09-3.08.9-1.99,1.99s3.08-.9,1.99-1.99ZM152.3,186.86v-1.99h-.98v1.99h.98ZM156.3,184.88c-1.09-1.09-3.08.9-1.99,1.99s3.08-.9,1.99-1.99ZM159.3,184.88l-1.99.49,1.98,1.5v-1.99ZM163.3,184.88c-1.09-1.09-3.08.9-1.99,1.99s3.08-.9,1.99-1.99ZM691.83,184.88h-4.99c-1,3.25,4.03,2.64,4.99,0ZM869.67,187.86v-2.99h-.98v2.99h.98ZM873.66,187.86v-2.99h-.98v2.99h.98ZM893.64,187.86v-2.99h-.98v2.99h.98ZM897.64,187.86v-2.99h-.98v2.99h.98ZM193.27,185.88h-4.99v.98h4.99v-.98ZM518.98,199.84c.16-3.03-.5-6.13-1.5-8.97-.41-1.17-2.14-4.58-3.48-5l.44,7.04,4.54,6.93ZM529.97,207.83c-.51-8.64-5.28-15.77-10.97-21.96l.76,5.72,10.21,16.24ZM654.87,185.88h-4.99c-1,3.25,4.03,2.64,4.99,0ZM792.73,187.86v-1.99h-.98v1.99h.98ZM796.73,187.86v-1.99h-.98v1.99h.98ZM800.73,187.86v-1.99h-.98v1.99h.98ZM828.7,188.86v-2.99h-.98v2.99h.98ZM832.7,188.86v-2.99h-.98v2.99h.98ZM836.69,187.86v-1.99h-.98v1.99h.98ZM858.68,188.86v-1.48s-1.98-1.51-1.98-1.51v2.99s1.98,0,1.98,0ZM862.68,188.86v-1.48s-1.98-1.51-1.98-1.51v2.99s1.98,0,1.98,0ZM901.64,188.86v-2.99h-.98v2.99h.98ZM905.63,188.86v-2.99h-.98v2.99h.98ZM909.63,188.86v-2.99h-.98v2.99h.98ZM437.05,186.87l-8.98,7.49-4.51,8.47c5.49-4.54,11.34-8.75,13.49-15.96ZM514.98,227.8l-1.21-17.25-10.77-23.68,2.49,10.98,9.48,29.95ZM725.79,190.86v-3.98h-.98v3.98h.98ZM737.79,189.86l-.49-2.99-1.49,1.51v1.48s1.98,0,1.98,0ZM758.76,189.86v-2.99h-.98v2.99h.98ZM766.76,194.85c-.55-1.97,1.29-7.1-.98-7.98.55,1.97-1.29,7.1.98,7.98ZM866.67,186.87c-1.09-1.09-3.08.9-1.99,1.99s3.08-.9,1.99-1.99ZM88.37,187.87h-14.99v1h14.99v-1ZM490.01,187.86c-2.5-.33-1.57.08-2.09,1.41-9.11,23.62-16.76,47.87-25.89,71.48l18.98,4.01,11.93-60.56-2.93-16.33ZM729.79,187.87c-1.09-1.09-3.08.9-1.99,1.99s3.08-.9,1.99-1.99ZM763.76,187.87h-1.99s0,2.99,0,2.99l1.98-1.51v-1.48ZM770.76,187.87h-1.99s0,1.48,0,1.48l1.49,1.51.49-2.99ZM193.27,188.87h-4.99v1.99h4.99v-1.99ZM442.04,188.87c-2.1,2.15-6.18,4.46-7.85,6.63-7.47,9.7-19.19,35.1-25.64,47.27-1.11,2.09-2.6,4.68-2.98,6.99l19.32-22.62,17.15-38.27ZM526.99,188.87l2.95,9.52,21.52,30.4c-4.19-15.62-13.28-28.52-24.48-39.92ZM691.83,190.85c-.61-2.26-3.08-2.13-4.99-1.98v1.99s4.99,0,4.99,0ZM873.66,191.86v-2.99h-.98v2.99h.98ZM893.64,191.86v-2.99h-.98v2.99h.98ZM897.64,191.86v-2.99h-.98v2.99h.98ZM654.86,189.87h-4.99v1.99h4.99v-1.99ZM792.73,192.85v-2.99h-.98v2.99h.98ZM796.73,192.85v-2.99h-.98v2.99h.98ZM800.73,192.85v-2.99h-.98v2.99h.98ZM828.7,192.85v-2.99h-.98v2.99h.98ZM832.7,192.85v-2.99h-.98v2.99h.98ZM836.69,192.85v-2.99h-.98v2.99h.98ZM869.67,191.86v-1.99h-.98v1.99h.98ZM88.37,190.86h-14.99v1h14.99v-1ZM149.31,190.87c-1.09-1.09-3.08.9-1.99,1.99s3.08-.9,1.99-1.99ZM153.31,190.87l-2.99.49,1.49,1.48,1.5-1.97ZM156.3,190.87c-1.09-1.09-3.08.9-1.99,1.99s3.08-.9,1.99-1.99ZM159.3,190.87l-1.99.49,1.98,1.5v-1.99ZM163.3,190.87h-1.99s0,1.99,0,1.99l1.99-1.99ZM607.9,190.86h-3.99v5h3.99v-5ZM614.9,190.86c-4.22-.53-5.52.83-5,4.99h5s0-4.99,0-4.99ZM620.89,190.86h-3.99v5h3.99v-5ZM627.89,190.86c-4.22-.53-5.52.83-5,4.99h5s0-4.99,0-4.99ZM858.68,190.87c-1.09-1.09-3.08.9-1.99,1.99s3.08-.9,1.99-1.99ZM862.68,190.87c-1.09-1.09-3.08.9-1.99,1.99s3.08-.9,1.99-1.99ZM866.67,190.87c-1.09-1.09-3.08.9-1.99,1.99s3.08-.9,1.99-1.99ZM901.64,192.85v-1.99h-.98v1.99h.98ZM905.63,192.85v-1.99h-.98v1.99h.98ZM909.63,192.85v-1.99h-.98v1.99h.98ZM193.27,193.85c-.5-2.39-3.09-.87-4.99-1.99v1.99s4.99,0,4.99,0ZM356.12,239.78l9.97,1.54,44.03-34.94,9.94-14.52-62.92,43.45c-1.24.64-1.25,4.33-1.02,4.48ZM725.79,194.85v-2.99h-.98v2.99h.98ZM729.79,191.87c-1.09-1.09-3.08.9-1.99,1.99s3.08-.9,1.99-1.99ZM737.79,191.87h-1.99s0,1.48,0,1.48l1.49,1.51.49-2.99ZM758.76,198.85c-.49-1.74,1.2-6.6-.98-6.98.65,2.46-2.16,6.01.98,6.98ZM763.76,191.87c-1.09-1.09-3.08.9-1.99,1.99s3.08-.9,1.99-1.99ZM770.76,191.87c-1.09-1.09-3.08.9-1.99,1.99s3.08-.9,1.99-1.99ZM87.37,193.86h-13.99v1h13.99v-1ZM691.83,193.87h-4.99c-3.01,3.06,6.52,1.25,4.99,0ZM869.67,195.85v-1.99h-.98v1.99h.98ZM873.66,195.85v-1.99h-.98v1.99h.98ZM893.64,195.85v-1.99h-.98v1.99h.98ZM897.64,195.85v-1.99h-.98v1.99h.98ZM654.86,194.87h-4.99v.98h4.99v-.98ZM796.73,197.85v-2.99h-.98v2.99h.98ZM800.73,197.85v-2.99h-.98v2.99h.98ZM832.7,197.85v-2.99h-.98v2.99h.98ZM836.69,197.85v-2.99h-.98v2.99h.98ZM858.68,194.86c-1.09-1.09-3.08.9-1.99,1.99s3.08-.9,1.99-1.99ZM862.68,194.86c-1.09-1.09-3.08.9-1.99,1.99s3.08-.9,1.99-1.99ZM866.67,194.86c-1.09-1.09-3.08.9-1.99,1.99s3.08-.9,1.99-1.99ZM901.64,197.85v-2.99h-.98v2.99h.98ZM905.63,197.85v-2.99h-.98v2.99h.98ZM909.63,197.85v-2.99h-.98v2.99h.98ZM149.31,195.86c-1.09-1.09-3.08.9-1.99,1.99s3.08-.9,1.99-1.99ZM153.31,197.84l-1.5-1.97-1.49,1.48,2.99.49ZM156.3,195.86c-1.09-1.09-3.08.9-1.99,1.99s3.08-.9,1.99-1.99ZM159.3,197.85v-1.99s-1.99,1.5-1.99,1.5l1.99.49ZM163.3,197.84l-1.99-1.99v1.99s1.99,0,1.99,0ZM193.27,195.86h-4.99v.98h4.99v-.98ZM536.96,234.79l-4.77-19.68-12.19-19.26,1.45,10.02,15.51,28.92ZM725.79,198.85v-2.99h-.98v2.99h.98ZM729.79,195.86c-1.09-1.09-3.08.9-1.99,1.99s3.08-.9,1.99-1.99ZM732.79,198.85v-2.99h-.98v2.99h.98ZM737.79,195.86c-1.09-1.09-3.08.9-1.99,1.99s3.08-.9,1.99-1.99ZM763.76,195.86h-1.99s0,2.99,0,2.99l1.98-1.51v-1.48ZM766.76,198.85v-2.99h-.98v2.99h.98ZM770.76,195.86h-1.99s0,1.48,0,1.48l1.49,1.51.49-2.99ZM88.37,198.85c-.55-2.25-1.44-1.36-2.75-1.35-2.84.02-5.88.23-8.76.34-1.22.05-3.71-.75-3.48,1h14.99ZM254.22,196.85h-31.97v2.99c1.1.39,2.2-1,2.5-1h27.98c.22,0,1.1,1.48,1.49,1v-3ZM437.05,231.79l11.5-17.96,5-16.96c-8.86,8.11-13.56,20.72-16.78,32.15-.27.95-1.66,2.99.28,2.77ZM522.97,227.8l-3.27-22.18-4.71-7.76c.07,4.82-.55,9.76,1.05,14.41l6.92,15.53ZM691.83,197.86h-4.99v1.99h4.99v-1.99ZM869.67,199.84v-1.99h-.98v1.99h.98ZM873.66,200.84v-2.99h-.98v2.99h.98ZM893.64,200.84v-2.99h-.98v2.99h.98ZM897.64,200.84v-2.99h-.98v2.99h.98ZM193.27,198.85h-4.99v1.99h4.99v-1.99ZM395.1,247.77c3.1-.71,7.23,2.39,9.5.02l25.97-48.92-11.35,9.62-24.13,39.28ZM654.86,198.85h-4.99v1.99h4.99v-1.99ZM792.73,201.84v-2.99h-.98v2.99h.98ZM796.73,201.84v-2.99h-.98v2.99h.98ZM800.73,201.84v-2.99h-.98v2.99h.98ZM828.7,201.84v-2.99h-.98v2.99h.98ZM832.7,201.84v-2.99h-.98v2.99h.98ZM836.69,201.84v-2.99h-.98v2.99h.98ZM858.68,198.85h-1.99v2.99h1.99v-2.99ZM862.68,198.85h-1.99v2.99h1.99v-2.99ZM866.67,198.85h-1.99v2.99h1.99v-2.99ZM901.64,201.84v-2.99h-.98v2.99h.98ZM905.63,201.84v-2.99h-.98v2.99h.98ZM909.63,201.84v-2.99h-.98v2.99h.98ZM607.9,199.84h-3.99v6h3.99v-6ZM611.41,199.86c-2.56.7-2.15,7.11,1.98,5.97,2.56-.7,2.15-7.11-1.98-5.97ZM620.89,199.84c-6.44-2.14-5.1,7.73,0,5.49v-5.49ZM624.4,199.86c-2.56.7-2.15,7.11,1.98,5.97,2.56-.7,2.15-7.11-1.98-5.97ZM725.79,201.84v-1.99h-.98v1.99h.98ZM729.79,199.85h-1.99v2.99h1.99v-2.99ZM732.79,202.84v-2.99h-.98v2.99h.98ZM737.79,199.85h-1.99s0,1.48,0,1.48l1.49,1.51.49-2.99ZM758.77,199.85h-1.99s1.01,2.98,1.01,2.98h.98s0-2.98,0-2.98ZM763.76,199.85h-1.99s0,2.99,0,2.99l1.98-1.51v-1.48ZM766.76,202.84v-2.99h-.98v2.99h.98ZM770.76,199.85h-1.99v2.99h1.99v-2.99ZM88.37,200.85h-14.99v1h14.99v-1ZM149.31,201.85c-1.09-1.09-3.08.9-1.99,1.99s3.08-.9,1.99-1.99ZM152.31,203.84v-1.99s-1.99,1.5-1.99,1.5l1.99.49ZM156.3,201.85c-1.09-1.09-3.08.9-1.99,1.99s3.08-.9,1.99-1.99ZM159.3,201.85c-1.09-1.09-3.08.9-1.99,1.99s3.08-.9,1.99-1.99ZM163.3,201.85c-1.09-1.09-3.08.9-1.99,1.99s3.08-.9,1.99-1.99ZM193.27,201.85h-4.99v1.99h4.99v-1.99ZM570.93,274.73c-5.66-11.75-9.45-26.54-15.59-37.83s-17.75-23.46-24.88-35.04c.89,4.98,1.89,10.14,4.32,14.64l36.14,58.22ZM869.67,204.84v-2.99h-.98v2.99h.98ZM873.66,204.84v-2.99h-.98v2.99h.98ZM893.64,204.84v-2.99h-.98v2.99h.98ZM897.64,204.84v-2.99h-.98v2.99h.98ZM654.87,204.83c-.61-2.26-3.08-2.13-4.99-1.98v1.99s4.99,0,4.99,0ZM691.83,202.85h-4.99v.98h4.99v-.98ZM901.64,205.83v-2.99h-.98v2.99h.98ZM905.63,205.83v-2.99h-.98v2.99h.98ZM88.37,203.84h-14.99v1h14.99v-1ZM729.79,203.85h-1.99v2.99h1.99v-2.99ZM732.79,210.83v-6.98h-.98v6.98h.98ZM737.79,203.85h-1.99s0,1.48,0,1.48l1.49,1.51.49-2.99ZM758.76,206.83v-2.99h-.98v2.99h.98ZM763.76,203.85h-1.99v2.99h1.99v-2.99ZM766.76,206.83v-2.99h-.98v2.99h.98ZM770.76,203.85h-1.99v2.99h1.99v-2.99ZM792.73,206.83v-2.99h-.98v2.99h.98ZM796.73,206.83v-2.99h-.98v2.99h.98ZM828.7,206.83v-2.99h-.98v2.99h.98ZM832.7,206.83v-2.99h-.98v2.99h.98ZM858.68,203.85c-1.09-1.09-3.08.9-1.99,1.99s3.08-.9,1.99-1.99ZM862.68,203.85c-1.09-1.09-3.08.9-1.99,1.99s3.08-.9,1.99-1.99ZM866.67,203.85c-1.09-1.09-3.08.9-1.99,1.99s3.08-.9,1.99-1.99ZM909.63,205.83v-1.99h-.98v1.99h.98ZM193.27,205.85h-4.99v.98h4.99v-.98ZM873.66,208.83v-2.99h-.98v2.99h.98ZM897.64,208.83v-2.99h-.98v2.99h.98ZM87.37,206.84h-13.99v2h13.99v-2ZM691.83,206.85h-4.99c-1,3.25,4.03,2.64,4.99,0ZM869.67,208.83v-1.99h-.98v1.99h.98ZM893.64,208.83v-1.99h-.98v1.99h.98ZM149.31,207.85h-1.99v.98h1.99v-.98ZM153.31,207.85l-2.99.49,1.49,1.48,1.5-1.97ZM156.3,207.85h-1.99v.98h1.99v-.98ZM159.3,207.84l-1.99.49,1.98,1.5v-1.99ZM163.3,207.85h-1.99s0,1.99,0,1.99l1.99-1.99ZM495,267.75c1.5-20.12,5.3-37.24-.29-57.12-.29-1.03-.25-3.02-1.69-2.78l-10.05,55.39c.43,3.95,8.95,2.45,12.03,4.51ZM654.86,207.85h-4.99v.98h4.99v-.98ZM729.79,207.84h-1.99v2.99h1.99v-2.99ZM737.79,207.84h-1.99v2.99h1.99v-2.99ZM758.76,210.83v-2.99h-.98v2.99h.98ZM763.76,207.84h-1.99v2.99h1.99v-2.99ZM766.76,210.83v-2.99h-.98v2.99h.98ZM770.76,207.84h-1.99v2.99h1.99v-2.99ZM792.73,210.83v-2.99h-.98v2.99h.98ZM796.73,210.83v-2.99h-.98v2.99h.98ZM800.73,210.83v-2.99h-.98v2.99h.98ZM828.7,210.83v-2.99h-.98v2.99h.98ZM832.7,210.83v-2.99h-.98v2.99h.98ZM836.69,210.83v-2.99h-.98v2.99h.98ZM858.68,207.84c-1.09-1.09-3.08.9-1.99,1.99s3.08-.9,1.99-1.99ZM862.68,207.84c-1.09-1.09-3.08.9-1.99,1.99s3.08-.9,1.99-1.99ZM866.67,207.84c-1.09-1.09-3.08.9-1.99,1.99s3.08-.9,1.99-1.99ZM901.64,209.83v-1.99h-.98v1.99h.98ZM905.63,209.83v-1.99h-.98v1.99h.98ZM909.63,209.83v-1.99h-.98v1.99h.98ZM193.27,208.84h-4.99v1.99h4.99v-1.99ZM845.69,212.82v-3.98h-.98v3.98h.98ZM607.9,209.83h-3.99v5h3.99v-5ZM614.91,209.83h-5c-.52,4.17.78,5.53,5,5v-5ZM620.89,209.83h-3.99v5h3.99v-5ZM627.89,209.83h-5c-.52,4.17.78,5.53,5,5v-5ZM87.37,210.83h-13.99v1h13.99v-1ZM368.12,241.77c2.77.15,6.4,2.69,8.96,1.55,11.5-9.77,22.08-18.9,29.99-32l-38.94,30.45ZM415.08,251.76c2.04-.5,4.83,1.22,6.53.11,2.82-1.83,10.59-15.15,12.22-18.81,3.14-7.05,5.37-14.88,7.74-22.21-4.5,5.74-12.71,12.61-16.35,18.59-3.86,6.35-5.99,15.82-10.13,22.32ZM547.96,277.73l-8.21-33.22-17.75-33.67c1.85,8.32,1.56,17.3,3.94,25.51,3.64,12.56,12.12,26.04,16.17,38.75,1.2,2.43,3.25,2.95,5.85,2.63ZM691.83,212.82c-.61-2.26-3.08-2.13-4.99-1.98v1.99s4.99,0,4.99,0ZM869.67,212.82v-1.99h-.98v1.99h.98ZM873.66,212.82v-1.99h-.98v1.99h.98ZM893.64,212.82v-1.99h-.98v1.99h.98ZM897.64,212.82v-1.99h-.98v1.99h.98ZM654.86,211.84h-4.99v1.99h4.99v-1.99ZM729.79,211.83h-1.99v2.99h1.99v-2.99ZM732.79,214.82v-2.99h-.98v2.99h.98ZM737.79,211.83h-1.99v2.99h1.99v-2.99ZM758.76,214.82v-2.99h-.98v2.99h.98ZM763.76,211.83h-1.99v2.99h1.99v-2.99ZM766.76,214.82v-2.99h-.98v2.99h.98ZM770.76,211.83h-1.99v2.99h1.99v-2.99ZM858.68,211.84c-1.09-1.09-3.08.9-1.99,1.99s3.08-.9,1.99-1.99ZM862.68,211.84c-1.09-1.09-3.08.9-1.99,1.99s3.08-.9,1.99-1.99ZM866.67,211.84h-1.99s0,2.99,0,2.99l1.98-1.51v-1.48ZM901.64,214.82v-2.99h-.98v2.99h.98ZM905.63,214.82v-2.99h-.98v2.99h.98ZM909.63,214.82v-2.99h-.98v2.99h.98ZM149.31,212.83c-1.09-1.09-3.08.9-1.99,1.99s3.08-.9,1.99-1.99ZM153.31,214.82l-1.5-1.97-1.49,1.48,2.99.49ZM156.3,212.83c-1.09-1.09-3.08.9-1.99,1.99s3.08-.9,1.99-1.99ZM159.3,214.82v-1.99s-1.99,1.5-1.99,1.5l1.99.49ZM163.3,214.82l-1.99-1.99v1.99s1.99,0,1.99,0ZM792.73,215.82v-2.99h-.98v2.99h.98ZM796.73,215.82v-2.99h-.98v2.99h.98ZM800.73,215.82v-2.99h-.98v2.99h.98ZM828.7,215.82v-2.99h-.98v2.99h.98ZM832.7,215.82v-2.99h-.98v2.99h.98ZM836.69,215.82v-2.99h-.98v2.99h.98ZM88.37,213.83h-14.99v1h14.99v-1ZM593.93,273.73l-.52-2.97-45.95-56.91c8.16,26.14,26.77,47.17,42.46,68.88v-8.99s4.01,0,4.01,0ZM673.84,214.84h-4.99v.98h4.99v-.98ZM869.67,217.82v-2.99h-.98v2.99h.98ZM873.66,217.82v-2.99h-.98v2.99h.98ZM893.64,217.82v-2.99h-.98v2.99h.98ZM897.64,217.82v-2.99h-.98v2.99h.98ZM210.77,215.84c-2.16,2.16-4.37,4.28-6.5,6.47-1.47,1.51-4.19,3.36-4.51,5.47,2.01-1.98,4.03-3.96,6-5.97,1.65-1.68,4.48-3.66,5-5.97ZM218.25,215.83h-3.99v1.99h3.99v-1.99ZM654.87,217.81c-.75-2.77-2.85-1.02-4.99-.98v.98s4.99,0,4.99,0ZM691.83,215.83h-4.99v.98h4.99v-.98ZM719.32,215.83c-2.27.47-2.9,10.36,1.98,8.97,2.76-.78,2.04-9.08-1.98-8.97ZM728.3,215.82v1c.65-.33.65-.67,0-1ZM732.79,218.82v-2.99h-.98v2.99h.98ZM737.79,215.83h-1.99v2.99h1.99v-2.99ZM758.76,218.82v-2.99h-.98v2.99h.98ZM763.76,215.83h-1.99v2.99h1.99v-2.99ZM766.76,218.82v-2.99h-.98v2.99h.98ZM770.76,215.83h-1.99v2.99h1.99v-2.99ZM848.71,224.81c4.21,2.74,6.12-8.12,2.47-8.98-3.84-.91-4.1,7.92-2.47,8.98ZM858.19,215.82v1c.65-.33.65-.67,0-1ZM866.67,215.83h-1.99v2.99h1.99v-2.99ZM901.64,218.82v-2.99h-.98v2.99h.98ZM905.63,218.82v-2.99h-.98v2.99h.98ZM909.63,218.82v-2.99h-.98v2.99h.98ZM88.37,216.82h-14.99v1h14.99v-1ZM148.81,216.82v1c.65-.33.65-.67,0-1ZM175.79,216.82v1c.65-.33.65-.67,0-1ZM177.79,216.82v1c.65-.33.65-.67,0-1ZM792.73,219.81v-2.99h-.98v2.99h.98ZM800.73,219.81v-2.99h-.98v2.99h.98ZM828.7,219.81v-2.99h-.98v2.99h.98ZM527.97,267.74l-4.46-32.97-7.51-16.95,1.44,19.02,10.53,30.9ZM836.2,217.82v1c.65-.33.65-.67,0-1ZM238.23,232.8v-13.98l-2.77,5.72c-.53,2.72-.16,5.52-.23,8.26h2.99ZM240.23,218.82v13.98c4.93,1.57,3.06-6.18,2.3-9.78-.21-.97-.95-4.28-2.3-4.19ZM334.15,232.8v-13.98c-1.35-.08-2.09,3.22-2.3,4.19-.72,3.38-.95,6.32-.7,9.79h2.99ZM336.15,218.82v13.98c4.93,1.57,3.06-6.18,2.3-9.78-.21-.97-.95-4.28-2.3-4.19ZM607.9,218.82h-3.99v5h3.99v-5ZM614.91,218.81h-5.01v5h5.01v-5ZM620.89,218.82h-3.99v5h3.99v-5ZM627.89,218.82c-6.8-.89-6.93,5.85,0,5v-5ZM673.85,218.83l-5.99.49c1.65,2.21,5.01,2.26,5.99-.49ZM869.67,221.81v-2.99h-.98v2.99h.98ZM873.66,221.81v-2.99h-.98v2.99h.98ZM893.64,221.81v-2.99h-.98v2.99h.98ZM897.64,221.81v-2.99h-.98v2.99h.98ZM87.37,219.82h-13.99l11.5,1.5,2.49-1.5ZM428.06,253.76c2.33-.04,6.93,3.09,8.49,1.03l10.01-34.95c-7.81,10.77-16.07,20.34-18.5,33.92ZM573.94,282.71l-38.96-62.89c3.02,22.6,15.72,40.08,24.88,60.26l14.08,2.63ZM691.83,219.82h-4.99v1.99h4.99v-1.99ZM737.79,219.82h-1.99v2.99h1.99v-2.99ZM758.76,222.81v-2.99h-.98v2.99h.98ZM763.76,222.81v-1.48s-1.98-1.51-1.98-1.51v2.99s1.98,0,1.98,0ZM770.69,228.81c-.46-.33-2.72,1.48-3.45.04l-1.46-9.03v15.97s6.98,0,6.98,0c-.21-1.16-1.78-6.76-2.07-6.98ZM770.76,222.81l-.49-2.99-1.49,1.51v1.48s1.98,0,1.98,0ZM901.64,222.81v-2.99h-.98v2.99h.98ZM905.63,222.81v-2.99h-.98v2.99h.98ZM909.63,222.81v-2.99h-.98v2.99h.98ZM218.25,220.82h-3.99v1.99h3.99v-1.99ZM866.67,222.81v-1.99h-.98v1.99h.98ZM792.73,224.81v-2.99h-.98v2.99h.98ZM796.73,224.81v-2.99h-.98v2.99h.98ZM800.73,224.81v-2.99h-.98v2.99h.98ZM828.7,224.81v-2.99h-.98v2.99h.98ZM832.7,224.81v-2.99h-.98v2.99h.98ZM210.77,222.83c-2.16,2.16-4.37,4.28-6.5,6.47-1.47,1.51-4.19,3.36-4.51,5.47,2.01-1.98,4.03-3.96,6-5.97,1.65-1.68,4.48-3.66,5-5.97ZM672.84,222.82h-3.99v1.99h3.99v-1.99ZM873.66,225.8v-2.99h-.98v2.99h.98ZM893.64,225.8v-2.99h-.98v2.99h.98ZM897.64,225.8v-2.99h-.98v2.99h.98ZM88.37,223.81h-14.99v1h14.99v-1ZM737.78,225.8v-1.99h-.98v1.99h.98ZM758.76,226.8v-2.99h-.98v2.99h.98ZM869.67,225.8v-1.99h-.98v1.99h.98ZM654.87,226.8c-.61-2.26-3.08-2.13-4.99-1.98v1.99s4.99,0,4.99,0ZM763.76,224.82h-1.99s0,2.99,0,2.99l1.98-1.51v-1.48ZM770.76,224.82h-1.99s0,1.48,0,1.48l1.49,1.51.49-2.99ZM901.64,227.8v-2.99h-.98v2.99h.98ZM905.63,226.8v-1.99h-.98v1.99h.98ZM909.63,226.8v-1.99h-.98v1.99h.98ZM218.25,225.81h-3.99v1.99h3.99v-1.99ZM88.37,226.81h-14.99v1h14.99v-1ZM210.77,226.83c-2.16,2.16-4.37,4.28-6.5,6.47-1.47,1.51-4.19,3.36-4.51,5.47,2.01-1.98,4.03-3.96,6-5.97,1.65-1.68,4.48-3.66,5-5.97ZM796.73,228.8v-1.99h-.98v1.99h.98ZM800.73,228.8v-1.99h-.98v1.99h.98ZM832.7,228.8v-1.99h-.98v1.99h.98ZM607.9,227.8h-3.99v5h3.99v-5ZM614.9,227.8c-4.22-.53-5.52.83-5,4.99h5s0-4.99,0-4.99ZM620.89,227.8h-3.99v5h3.99v-5ZM627.89,227.8c-4.78-.64-4.7,1.1-4.99,4.99h5s0-4.99,0-4.99ZM673.84,227.82h-4.99v.98h4.99v-.98ZM758.76,235.79c-.55-1.97,1.29-7.1-.98-7.98.55,1.97-1.29,7.1.98,7.98ZM869.67,229.8v-1.99h-.98v1.99h.98ZM873.66,229.8v-1.99h-.98v1.99h.98ZM893.64,229.8v-1.99h-.98v1.99h.98ZM897.64,229.8v-1.99h-.98v1.99h.98ZM286.94,228.99c-9.7.84-9.01,16.4-.26,16.88,11.7.64,9.93-17.72.26-16.88ZM691.83,228.81h-4.99v1.99h4.99v-1.99ZM763.76,228.81h-1.99s0,2.99,0,2.99l1.98-1.51v-1.48ZM901.64,231.8v-2.99h-.98v2.99h.98ZM905.63,231.8v-2.99h-.98v2.99h.98ZM909.63,231.8v-2.99h-.98v2.99h.98ZM88.37,229.8h-14.99v1h14.99v-1ZM654.87,229.81h-4.99c-1,3.25,4.03,2.64,4.99,0ZM803.73,229.81c-1.45-1.47-6.66,3.94-5.99,5.98h6.99c-2.29-1.54-.78-5.75-1-5.98ZM218.25,230.81h-3.99v1.99h3.99v-1.99ZM792.73,233.79v-2.99h-.98v2.99h.98ZM796.73,233.79v-2.99h-.98v2.99h.98ZM828.7,233.79v-2.99h-.98v2.99h.98ZM832.7,233.79v-2.99h-.98v2.99h.98ZM672.84,231.81h-3.99v1.99h3.99v-1.99ZM869.67,234.79v-2.99h-.98v2.99h.98ZM873.66,234.79v-2.99h-.98v2.99h.98ZM893.64,234.79v-2.99h-.98v2.99h.98ZM897.64,234.79v-2.99h-.98v2.99h.98ZM390.61,232.82c-2.44,3.69-8.08,6.43-10.52,9.45-2.14,2.66,2.68,3.5,4.03,1.03l6.49-10.48ZM763.76,232.8h-1.99v2.99h1.99v-2.99ZM901.64,235.79v-2.99h-.98v2.99h.98ZM905.63,235.79v-2.99h-.98v2.99h.98ZM909.63,235.79v-2.99h-.98v2.99h.98ZM87.37,233.8h-13.99v1h13.99v-1ZM210.77,233.82c-2.16,2.16-4.37,4.28-6.5,6.47-1.47,1.51-4.19,3.36-4.51,5.47,2.01-1.98,4.03-3.96,6-5.97,1.65-1.68,4.48-3.66,5-5.97ZM421.58,233.82c-3.44,4.42-9.37,9.24-12.1,13.86-.58.99-2.21,1.62-.41,2.6,1.66.91,4.31.96,5.52-.51l6.99-15.96ZM507.99,269.74c-2.6-9.81-4.25-19.9-6.67-29.77-.4-1.62-.71-5.63-2.31-6.16l-2.05,33.29c.34,1.48,9.13,2.58,11.03,2.64ZM654.87,235.78c-.61-2.26-3.08-2.13-4.99-1.98v1.99s4.99,0,4.99,0ZM691.83,233.81h-4.99v.98h4.99v-.98ZM238.23,234.79h-2.99v12.99h2.99v-12.99ZM243.23,234.79h-2.99v12.99h2.99v-12.99ZM334.15,234.79h-2.99v12.99h2.99v-12.99ZM339.14,234.79h-2.99v12.99h2.99v-12.99ZM792.73,238.79v-3.98h-.98v3.98h.98ZM828.7,238.79v-3.98h-.98v3.98h.98ZM218.25,235.8h-3.99v1.99h3.99v-1.99ZM873.66,238.79v-2.99h-.98v2.99h.98ZM893.64,238.79v-2.99h-.98v2.99h.98ZM897.64,238.79v-2.99h-.98v2.99h.98ZM88.37,236.79h-14.99v1h14.99v-1ZM607.9,236.79h-3.99v5h3.99v-5ZM611.41,236.8c-1.78.49-2.81,4.79.49,5.63,4.47,1.13,3.98-6.86-.49-5.63ZM620.89,236.79h-3.98c-.46,4.83-.48,4.85,3.98,6v-6ZM627.88,236.79c-2.11-2.43-7.55,3.26-3.52,5.89,3.41.26,4.93-4.26,3.52-5.89ZM758.76,239.78v-2.99h-.98v2.99h.98ZM901.64,239.78v-2.99h-.98v2.99h.98ZM905.63,239.78v-2.99h-.98v2.99h.98ZM210.77,237.81c-2.16,2.16-4.37,4.28-6.5,6.47-1.47,1.51-4.19,3.36-4.51,5.47,2.01-1.98,4.03-3.96,6-5.97,1.65-1.68,4.48-3.66,5-5.97ZM691.83,237.8h-4.99c-1,3.25,4.03,2.64,4.99,0ZM909.63,239.78v-1.99h-.98v1.99h.98ZM942.61,237.8h-4.99v.98h4.99v-.98ZM654.86,238.8h-4.99v.98h4.99v-.98ZM88.37,239.79h-14.99v1h14.99v-1ZM673.85,239.8h-4.99c-1,3.25,4.03,2.64,4.99,0ZM869.67,242.78v-2.99h-.98v2.99h.98ZM218.25,240.79h-3.99v1.99h3.99v-1.99ZM873.66,242.78v-1.99h-.98v1.99h.98ZM893.64,242.78v-1.99h-.98v1.99h.98ZM897.64,242.78v-1.99h-.98v1.99h.98ZM942.61,240.8l-4.99.49c1.58,2.22,4.03,2.18,4.99-.49ZM540.96,276.73c-4.37-10.46-8.18-21.26-12.83-31.6-.5-1.12-.73-3.46-2.14-3.34,1.45,10.93,3.59,21.91,4.03,32.91l10.94,2.03ZM691.83,243.77c-.61-2.26-3.08-2.13-4.99-1.98v1.99s4.99,0,4.99,0ZM901.64,243.78v-1.99h-.98v1.99h.98ZM905.63,243.78v-1.99h-.98v1.99h.98ZM909.63,243.78v-1.99h-.98v1.99h.98ZM88.37,242.78h-14.99v1h14.99v-1ZM429.57,243.8c-2.03,2-3.7,4.43-5.1,6.89-.91,1.59-2.27,1.24.1,3.08,2.02.34,2.25-1.97,2.78-3.19.88-2.04,1.57-4.61,2.21-6.77ZM576.16,283.5l13.75,2.73-29.95-42.44,16.2,39.71ZM673.85,245.77c-.61-2.26-3.08-2.13-4.99-1.98v1.99s4.99,0,4.99,0ZM210.77,244.8c-2.16,2.16-4.37,4.28-6.5,6.47-1.47,1.51-4.19,3.36-4.51,5.47,2.01-1.98,4.03-3.96,6-5.97,1.65-1.68,4.48-3.66,5-5.97ZM869.67,246.77v-1.99h-.98v1.99h.98ZM873.66,246.77v-1.99h-.98v1.99h.98ZM893.64,246.77v-1.99h-.98v1.99h.98ZM897.64,246.77v-1.99h-.98v1.99h.98ZM942.61,244.79h-4.99v.98h4.99v-.98ZM218.25,245.78h-3.99v1.99h3.99v-1.99ZM901.64,248.77v-2.99h-.98v2.99h.98ZM905.63,248.77v-2.99h-.98v2.99h.98ZM909.63,248.77v-2.99h-.98v2.99h.98ZM87.37,246.78h-13.99v1h13.99v-1ZM607.9,246.77h-3.99v5h3.99v-5ZM614.91,246.77h-5c-.52,4.17.78,5.53,5,5v-5ZM620.89,246.77h-3.99v5h3.99v-5ZM627.89,246.77h-5c-.52,4.17.78,5.53,5,5v-5ZM654.87,248.77c-.61-2.26-3.08-2.13-4.99-1.98v1.99s4.99,0,4.99,0ZM691.83,246.79h-4.99s0,1.99,0,1.99l4.98-1.01v-.98ZM942.61,249.76c-.61-2.26-3.08-2.13-4.99-1.98v1.99s4.99,0,4.99,0ZM210.77,248.79c-2.16,2.16-4.37,4.28-6.5,6.47-1.47,1.51-4.19,3.36-4.51,5.47,2.01-1.98,4.03-3.96,6-5.97,1.65-1.68,4.48-3.66,5-5.97ZM673.84,248.78h-5.99v.98h5.99v-.98ZM869.67,251.77v-2.99h-.98v2.99h.98ZM873.66,251.77v-2.99h-.98v2.99h.98ZM893.64,251.77v-2.99h-.98v2.99h.98ZM897.64,251.77v-2.99h-.98v2.99h.98ZM88.37,249.77h-14.99v1h14.99v-1ZM119.33,252.76v-2.99h-.98v2.99h.98ZM127.33,249.78h-1.99v2.99h1.99v-2.99ZM132.32,249.78h-1.99s0,2.99,0,2.99l1.98-1.51v-1.48ZM901.64,252.76v-2.99h-.98v2.99h.98ZM905.63,252.76v-2.99h-.98v2.99h.98ZM909.63,252.76v-2.99h-.98v2.99h.98ZM218.25,250.78h-3.99v1.99h3.99v-1.99ZM557.95,279.72l-3.47-8.01-11.51-20.94c1.66,3.82,5.57,26.37,7.16,27.78.31.28,7.52,1.44,7.81,1.16ZM691.83,250.78h-4.99v1.99h4.99v-1.99ZM718.81,273.74v-22.97c-2.07.84-5.99,5.56-5.99,7.49v15.48h5.99ZM720.81,250.77v22.97h6c-.28-7.61,1.56-18.42-6-22.97ZM751.78,273.74v-22.97c-2.07.84-5.99,5.56-5.99,7.49v15.48h5.99ZM753.78,250.77v22.97c9.3.73,5.22-.9,5-6.49-.25-6.32,1.71-12.94-5-16.47ZM784.75,273.74v-22.97c-2.4-.06-5.99,5.98-5.99,7.49v15.48h5.99ZM786.75,252.27c.3,6.6,0,13.35,0,19.97,0,.22-1.48,1.1-1,1.49h6.99c-2.8-7.7,1.99-16.94-5.51-22.95-3.06-.24-.51,1.03-.49,1.49ZM811.73,257.26c-.92,4.53.67,11.6,0,16.48h5.99c.48-.4-1-1.28-1-1.5v-19.97c0-.29,1.22-.71,1-1.49-1.64-1.4-5.74,5.21-5.99,6.48ZM824.71,273.74v-15.48c0-1.1-3.84-8.36-5.99-7.49v22.97h5.99ZM849.69,273.74v-22.97c-1.52.14-5,5.86-5,6.49v16.48h5ZM857.69,273.74v-15.48c0-1.93-3.92-6.65-5.99-7.49v22.97h5.99ZM654.87,251.78h-4.99c-3.01,3.06,6.52,1.25,4.99,0ZM942.61,251.78h-4.99v.98h4.99v-.98ZM88.37,252.77h-14.99v1h14.99v-1ZM673.85,254.76c-.61-2.26-3.08-2.13-4.99-1.98v1.99s4.99,0,4.99,0ZM869.67,255.76v-2.99h-.98v2.99h.98ZM873.66,255.76v-2.99h-.98v2.99h.98ZM893.64,255.76v-2.99h-.98v2.99h.98ZM897.64,255.76v-2.99h-.98v2.99h.98ZM901.64,256.76v-2.99h-.98v2.99h.98ZM905.63,256.76v-2.99h-.98v2.99h.98ZM909.63,256.76v-1.99h-.98v1.99h.98ZM942.61,256.75c-.96-2.66-3.41-2.71-4.99-.49l4.99.49ZM87.37,255.76h-13.99v1h13.99v-1ZM116.33,258.75v-2.99h-.98v2.99h.98ZM119.33,258.75v-2.99h-.98v2.99h.98ZM124.33,255.77h-1.99v2.99h1.99v-2.99ZM127.33,255.77h-1.99v2.99h1.99v-2.99ZM132.32,255.77h-1.99v2.99h1.99v-2.99ZM210.77,255.78c-2.16,2.16-4.37,4.28-6.5,6.47-1.47,1.51-4.19,3.36-4.51,5.47,2.01-1.98,4.03-3.96,6-5.97,1.65-1.68,4.48-3.66,5-5.97ZM218.25,255.77h-3.99v1.99h3.99v-1.99ZM607.9,255.76h-3.99v5h3.99v-5ZM614.91,255.76h-5.01v5h5.01v-5ZM620.89,255.76h-3.99v5h3.99v-5ZM627.89,255.76c-6.8-.89-6.93,5.85,0,5v-5ZM654.86,255.77h-4.99v1.99h4.99v-1.99ZM673.85,258.75c-.55-2.47-3.13-1.15-4.99-1.99v1.99s4.99,0,4.99,0ZM869.67,259.75v-1.99h-.98v1.99h.98ZM873.66,259.75v-1.99h-.98v1.99h.98ZM893.64,259.75v-1.99h-.98v1.99h.98ZM897.64,259.75v-1.99h-.98v1.99h.98ZM901.64,261.75v-2.99h-.98v2.99h.98ZM905.63,261.75v-2.99h-.98v2.99h.98ZM909.63,261.75v-2.99h-.98v2.99h.98ZM942.61,258.77h-4.99v.98h4.99v-.98ZM87.37,259.76h-13.99v1h13.99v-1ZM210.77,259.78c-2.16,2.16-4.37,4.28-6.5,6.47-1.47,1.51-4.19,3.36-4.51,5.47,2.01-1.98,4.03-3.96,6-5.97,1.65-1.68,4.48-3.66,5-5.97ZM691.83,259.77h-4.99c-1,3.25,4.03,2.64,4.99,0ZM65.38,260.77c-2.15.05-4.34-.11-6.5,0-1.22.06-3.71-.76-3.48.99,2.15-.05,4.34.11,6.5,0,1.22-.06,3.71.76,3.48-.99ZM218.25,262.74c-.53-1.99-2.13-2.24-3.99-1.98v1.99s3.99,0,3.99,0ZM654.86,260.77h-4.99v.98h4.99v-.98ZM116.33,265.74v-3.98h-.98v3.98h.98ZM124.33,261.76h-1.99v2.99h1.99v-2.99ZM127.33,264.75l-.49-2.99-1.49,1.51v1.48s1.98,0,1.98,0ZM132.32,264.75v-1.48s-1.98-1.51-1.98-1.51v2.99s1.98,0,1.98,0ZM673.85,261.76h-4.99c-1,3.25,4.03,2.64,4.99,0ZM869.67,263.75v-1.99h-.98v1.99h.98ZM873.66,263.75v-1.99h-.98v1.99h.98ZM893.64,263.75v-1.99h-.98v1.99h.98ZM897.64,263.75v-1.99h-.98v1.99h.98ZM925.62,261.76h-3.99v.98h3.99v-.98ZM88.37,262.75h-14.99v1h14.99v-1ZM306.17,262.75h-37.97v1h37.97v-1ZM901.64,265.74v-2.99h-.98v2.99h.98ZM905.63,265.74v-2.99h-.98v2.99h.98ZM909.63,265.74v-2.99h-.98v2.99h.98ZM942.61,262.76h-4.99v.98h4.99v-.98ZM691.83,265.74c-.61-2.26-3.08-2.13-4.99-1.98v1.99s4.99,0,4.99,0ZM65.38,264.76c-2.15.05-4.34-.11-6.5,0-1.22.06-3.71-.76-3.48.99,2.15-.05,4.34.11,6.5,0,1.22-.06,3.71.76,3.48-.99ZM356.13,264.75v16.97c2.27-2.39,11.01-13.05,11-15.47l-11-1.51ZM607.9,264.75h-3.99v5h3.99v-5ZM614.9,264.75c-4.22-.53-5.52.83-5,4.99h5s0-4.99,0-4.99ZM620.89,264.75h-3.99v5h3.99v-5ZM627.89,264.75c-5.14-.59-4.46,1.06-5,4.99h5.01s0-4.99,0-4.99ZM654.87,264.76h-4.99c-1,3.25,4.03,2.64,4.99,0ZM925.62,264.76h-3.99v1.99h3.99v-1.99ZM88.37,265.75h-14.99v1h14.99v-1ZM218.25,265.75h-3.99v1.99h3.99v-1.99ZM673.85,267.74c-.61-2.26-3.08-2.13-4.99-1.98v1.99s4.99,0,4.99,0ZM869.67,268.74v-2.99h-.98v2.99h.98ZM873.66,268.74v-2.99h-.98v2.99h.98ZM893.64,268.74v-2.99h-.98v2.99h.98ZM897.64,268.74v-2.99h-.98v2.99h.98ZM941.61,265.75l-3.99.49c1.08,1.54,2.14,1.74,3.99,1.5v-1.99ZM210.77,266.77c-2.16,2.16-4.37,4.28-6.5,6.47-1.47,1.51-4.19,3.36-4.51,5.47,2.01-1.98,4.03-3.96,6-5.97,1.65-1.68,4.48-3.66,5-5.97ZM238.23,280.73v-13.98l-2.77,5.72c-.53,2.72-.16,5.52-.23,8.26h2.99ZM240.23,266.75v13.98c4.93,1.57,3.06-6.18,2.3-9.78-.21-.97-.95-4.28-2.3-4.19ZM334.15,280.73v-13.98c-1.35-.08-2.09,3.22-2.3,4.19-.72,3.38-.95,6.32-.7,9.79h2.99ZM336.15,266.75v13.98c4.93,1.57,3.06-6.18,2.3-9.78-.21-.97-.95-4.28-2.3-4.19ZM380.11,267.75c-3.7.15-8.15-2.57-11.56-.07-1.08.79-10.08,13.72-11.23,15.73-.64,1.11-1.52,1.81-1.18,3.3.55.54,13.88-2.82,14.92-3.56.79-.56,7.53-11.19,8.25-12.73.42-.9,1.16-1.35.81-2.68ZM901.64,269.74v-2.99h-.98v2.99h.98ZM905.63,269.74v-2.99h-.98v2.99h.98ZM909.63,269.74v-2.99h-.98v2.99h.98ZM65.38,267.76c-2.15.05-4.34-.11-6.5,0-1.22.06-3.71-.76-3.48.99,2.15-.05,4.34.11,6.5,0,1.22-.06,3.71.76,3.48-.99ZM116.33,271.74v-3.98h-.98v3.98h.98ZM119.33,271.74v-3.98h-.98v3.98h.98ZM124.33,271.74l-.49-3.99-1.5,2.48,1.98,1.51ZM130.34,271.74l1.98-1.51-1.5-2.48-.49,3.99ZM392.09,268.75l-9.99-.58-8.98,14.55c10.25-.58,17.01-3.3,18.98-13.96ZM127.33,268.75h-1.99s0,1.48,0,1.48l1.49,1.51.49-2.99ZM652.86,268.75h-2.99v1.99h2.99v-1.99ZM691.83,268.75h-4.99v.98h4.99v-.98ZM925.62,268.75h-3.99v.98h3.99v-.98ZM87.37,269.74h-13.99v1h13.99v-1ZM404.08,270.75c-9.93-2.38-11.75-.23-14.97,8.98,6.15-3.01,14.31-.11,14.97-8.98ZM873.66,272.73v-2.99h-.98v2.99h.98ZM897.64,272.73v-2.99h-.98v2.99h.98ZM65.38,270.75c-2.15.05-4.34-.11-6.5,0-1.22.06-3.71-.76-3.48.99,2.15-.05,4.34.11,6.5,0,1.22-.06,3.71.76,3.48-.99ZM210.77,270.76c-2.16,2.16-4.37,4.28-6.5,6.47-1.47,1.51-4.19,3.36-4.51,5.47,2.01-1.98,4.03-3.96,6-5.97,1.65-1.68,4.48-3.66,5-5.97ZM218.25,270.75h-3.99v1.99h3.99v-1.99ZM417.07,272.75l-10.95-2.01-2.03,4.98,12.98-2.97ZM905.63,273.73v-1.99h-.98v1.99h.98ZM909.63,273.73v-1.99h-.98v1.99h.98ZM925.62,271.74h-3.99v1.99h3.99v-1.99ZM961.59,271.75c-1.25-.66-3.48,1.59-3,1.98,1.25.66,3.48-1.59,3-1.98ZM87.37,272.74h-13.99v1h13.99v-1ZM691.83,272.75h-4.99v.98h4.99v-.98ZM65.38,273.75c-2.15.05-4.34-.11-6.5,0-1.22.06-3.71-.76-3.48.99,2.15-.05,4.34.11,6.5,0,1.22-.06,3.71.76,3.48-.99ZM652.86,273.75h-2.99v.98h2.99v-.98ZM942.61,273.75h-4.99v.98h4.99v-.98ZM107.35,274.74h-13.99v1h13.99v-1ZM116.33,277.73v-2.99h-.98v2.99h.98ZM119.33,277.73v-2.99h-.98v2.99h.98ZM124.33,274.74h-1.99v2.99h1.99v-2.99ZM127.33,274.74h-1.99v2.99h1.99v-2.99ZM132.32,274.74h-1.99s0,2.99,0,2.99l1.98-1.51v-1.48ZM218.25,275.74h-3.99v1.99h3.99v-1.99ZM925.62,275.74h-3.99v.98h3.99v-.98ZM87.37,276.73h-13.99v1h13.99v-1ZM942.61,276.74h-4.99v1.99h4.99v-1.99ZM959.1,276.73v1c.65-.33.65-.67,0-1ZM958.6,286.22c-1.2,6.24.88,15.81,0,22.47l4.69-20.77,5.28-10.69c-1.55.19-3.65,2.11-4.91,3.13-.72.58-.92,1.96-1.26,2.18s-1.54-.86-1.71-.73c-.2.15-2.05,4.18-2.1,4.42ZM65.38,277.74c-2.15.05-4.34-.11-6.5,0-1.22.06-3.71-.76-3.48.99,2.15-.05,4.34.11,6.5,0,1.22-.06,3.71.76,3.48-.99ZM93.36,279.73h13.99c0-1.87.6-2.1-1.42-1.88-3.78.41-7.15-.02-10.92.48-1.21.16-2.34-1.67-1.64,1.4ZM210.77,277.75c-2.16,2.16-4.37,4.28-6.5,6.47-1.47,1.51-4.19,3.36-4.51,5.47,2.01-1.98,4.03-3.96,6-5.97,1.65-1.68,4.48-3.66,5-5.97ZM456.68,277.82c-1.1.38-4.37,8.18-4.46,9.6-.08,1.24.34,1.5,1.29,2.15,12.69-1.97,26.13-2.42,39-1.85,4.68.21,11.54,2.02,16.04,2.04,1.55,0,2.55-.2,3.44-1.56.97-3.4-3.44-3.8-5.75-4.22-16.05-2.87-33.36-3.5-49.55-6.17ZM652.86,277.74h-2.99v1.99h2.99v-1.99ZM964.59,295.2c-.55,5.21.4,11.17,0,16.48l7.99-14.97c-2.37-1.43-4.59,4.39-5.99,2.98-.7-.7,1.27-2.98,1.44-3.88.23-1.26-.57-2.36.05-4.01.75-2.03,3.89-4.35,4.36-6.81s-1.13-4.81-.86-7.25c-1.41.48-2.93,3.69-3.49,4.99-1.3,3.06-3.17,9.31-3.5,12.48ZM625.89,312.68v-22.47c0-2.76-7.54-12.66-11.68-10.76-11.13,5.11-9.42,23.36-8.3,33.22h19.98ZM88.37,279.73h-14.99v1h14.99v-1ZM65.38,280.74c-2.15.05-4.34-.11-6.5,0-1.22.06-3.71-.76-3.48.99,2.15-.05,4.34.11,6.5,0,1.22-.06,3.71.76,3.48-.99ZM116.33,283.72v-2.99h-.98v2.99h.98ZM119.33,283.72v-2.99h-.98v2.99h.98ZM124.33,280.73h-1.99v2.99h1.99v-2.99ZM127.33,280.73h-1.99v2.99h1.99v-2.99ZM132.32,280.73h-1.99v2.99h1.99v-2.99ZM218.25,280.73h-3.99v1.99h3.99v-1.99ZM942.61,280.74h-4.99v.98h4.99v-.98ZM107.35,281.72h-13.99v1h13.99v-1ZM210.77,281.74c-2.16,2.16-4.37,4.28-6.5,6.47-1.47,1.51-4.19,3.36-4.51,5.47,2.01-1.98,4.03-3.96,6-5.97,1.65-1.68,4.48-3.66,5-5.97ZM436.06,281.73l-79.92,13.98v11.98c3.76,2.6,9.51-4.34,9.96-4,.57.43.1,3.38,4.61,3.96,5.67.73,7.05-3.94,7.9-3.95.65,0,1.24,2.67,2.72,3.31,7.67,3.31,9.66-3.31,10.26-3.31.52,0,2.39,2.94,3.51,3.46,3.42,1.56,8.68.9,9-3.48.57-.41,4.65,6.57,11,3.51,1.94-.94,1.1-3.92,3.46-3.51.83.21,1.32,5.06,5.89,4.07,1.39-.3,9.81-23,11.6-26.02ZM652.87,283.71l-1.51-1.98h-1.48s0,1.98,0,1.98h2.99ZM88.37,282.72h-14.99v1h14.99v-1ZM238.23,282.72h-2.99v12.99h2.99v-12.99ZM243.23,282.72h-2.99v12.99h2.99v-12.99ZM334.15,282.72h-2.99v12.99h2.99v-12.99ZM339.14,282.72h-2.99v12.99h2.99v-12.99ZM925.62,282.73h-3.99v.98h3.99v-.98ZM65.38,283.73c-2.15.05-4.34-.11-6.5,0-1.22.06-3.71-.76-3.48.99,2.15-.05,4.34.11,6.5,0,1.22-.06,3.71.76,3.48-.99ZM942.61,285.71c-.75-2.77-2.85-1.02-4.99-.98v.98s4.99,0,4.99,0ZM107.35,284.72h-13.99v1h13.99v-1ZM671.85,291.71c-1.25-3.42-4.6-8.44-8.04-5.54-1.2,1.02-4.83,5.1-1.47,5.54,2.93.39,6.48-.28,9.5,0ZM724.8,291.71c.5-3.24-2.52-5.09-4.63-6.92-1.9-.42-5.32,4.88-6.35,6.43l10.98.49ZM758.77,291.7c-4.23-8.37-7.18-8.78-11.98-.48l11.98.48ZM790.74,291.71c.5-3.24-2.52-5.09-4.63-6.92-1.9-.42-5.32,4.88-6.35,6.43l10.98.49ZM823.72,291.7c.47-.39-4.21-6.6-5.63-6.91-1.71-.38-8.39,6.72-3.88,6.92,3.16.14,6.36-.1,9.51-.01ZM854.34,287.08c-5.32-5.38-9.43,3.88-8.63,4.63h10.98c.67-.61-1.7-3.97-2.35-4.63ZM909.64,291.71c.5-3.24-2.52-5.09-4.63-6.92-1.9-.42-5.32,4.88-6.35,6.43l10.98.49ZM87.37,285.72h-13.99v2h13.99v-2ZM218.25,285.72h-3.99v1.99h3.99v-1.99ZM925.62,285.72h-3.99v1.99h3.99v-1.99ZM65.38,286.73c-2.15.05-4.34-.11-6.5,0-1.22.06-3.71-.76-3.48.99,2.15-.05,4.34.11,6.5,0,1.22-.06,3.71.76,3.48-.99ZM116.33,289.71v-2.99h-.98v2.99h.98ZM119.33,289.71v-2.99h-.98v2.99h.98ZM124.33,286.72h-1.99v2.99h1.99v-2.99ZM127.33,286.72h-1.99v2.99h1.99v-2.99ZM132.32,289.71v-1.48s-1.98-1.51-1.98-1.51v2.99s1.98,0,1.98,0ZM107.35,287.72h-13.99v1h13.99v-1ZM589.93,294.7l-56.95-6.98c1.51,4.02,3.35,16.85,6.41,19.04s9.36,1.5,9.59-3.07c3.4,2.7,4.44,4.89,9.45,3.99,3.68-.67,2.75-4.59,5.02-3.99,3.02,6.76,9.27,4.54,13.48,0-.69,3.54,7.41,4.87,8.01,4,1.13-1.63-2.82-5.24,5-4v-9ZM942.61,287.73l-4.99.49c1.58,2.22,4.03,2.18,4.99-.49ZM210.77,288.73c-2.16,2.16-4.37,4.28-6.5,6.47-1.47,1.51-4.19,3.36-4.51,5.47,2.01-1.98,4.03-3.96,6-5.97,1.65-1.68,4.48-3.66,5-5.97ZM88.37,289.71h-14.99v1h14.99v-1ZM925.62,289.72h-3.99v.98h3.99v-.98ZM65.38,290.72c-2.15.05-4.34-.11-6.5,0-1.22.06-3.71-.76-3.48.99,2.15-.05,4.34.11,6.5,0,1.22-.06,3.71.76,3.48-.99ZM93.36,292.71h13.99c.13-1.54.94-1.68-.94-1.69-3.7-.02-7.9-.78-11.56-.31-1.38.18-3.05.66-1.48,2ZM218.25,290.72h-3.99v1.99h3.99v-1.99ZM652.86,290.72h-2.99v1.99h2.99v-1.99ZM942.61,291.72h-4.99v.98h4.99v-.98ZM88.37,292.71h-14.99v1h14.99v-1ZM116.33,296.7v-3.98h-.98v3.98h.98ZM119.33,296.7v-3.98h-.98v3.98h.98ZM210.77,292.73c-1.48,1.5-3.06,2.93-4.51,4.47-.79.84-3.05,2.25-2.51,3.48,1.34-1.32,2.7-2.62,4.01-3.98.94-.98,3.34-2.53,3.01-3.98ZM925.62,292.71h-3.99v1.99h3.99v-1.99ZM37.12,296.98c-.24-.3-5.1-4.74-4.64-1.85.41,2.61,1.33,5.61,1.62,8.38l4.31,8.16c-.49-3.98,1.25-11.56-1.28-14.69ZM65.38,293.72c-2.15.05-4.34-.11-6.5,0-1.22.06-3.71-.76-3.48.99,2.15-.05,4.34.11,6.5,0,1.22-.06,3.71.76,3.48-.99ZM124.33,293.71h-1.99v2.99h1.99v-2.99ZM127.33,293.71h-1.99s0,1.48,0,1.48l1.49,1.51.49-2.99ZM664.86,293.7h-5.01v10.99h5.01v-10.99ZM672.85,293.7h-6.01v10.99h6.01v-10.99ZM718.81,293.7h-6.01v10.99h6.01v-10.99ZM725.81,293.7h-5.01v10.99h5.01v-10.99ZM751.78,293.7l-5.56.94-.44,10.05h6.01s0-10.99,0-10.99ZM758.73,304.64c.58-5.8,3.96-12.15-4.95-10.94v10.99s4.95-.05,4.95-.05ZM784.76,293.7h-6.01v10.99h6.01v-10.99ZM791.75,293.7h-5.01v10.99h5.01v-10.99ZM816.73,293.7h-5.01v10.99h5.01v-10.99ZM824.72,293.7h-6.01v10.99h6.01v-10.99ZM849.7,293.7h-5.01v10.99h5.01v-10.99ZM857.69,293.7h-6.01v10.99h6.01v-10.99ZM903.65,293.7h-6.01v10.99h6.01v-10.99ZM910.64,293.7h-5.01v10.99h5.01v-10.99ZM107.35,294.71h-13.99v1h13.99v-1ZM87.37,295.7h-13.99v1h13.99v-1ZM218.25,295.71l-3.99.49c1.08,1.54,2.14,1.74,3.99,1.5v-1.99ZM652.86,295.71h-2.99v.98h2.99v-.98ZM65.38,296.71c-2.15.05-4.34-.11-6.5,0-1.22.06-3.71-.76-3.48.99,2.15-.05,4.34.11,6.5,0,1.22-.06,3.71.76,3.48-.99ZM925.62,296.71h-3.99v.98h3.99v-.98ZM107.35,297.7h-13.99v1h13.99v-1ZM509.99,302.71c-16.72-7.14-35.39-5.58-52.96-3-.68,6.08,6.28,10.38,11.43,6.89,1.52-1.03,1.45-2.8,1.59-2.9.56-.41,4.65,6.57,11,3.51,1.94-.93,1.1-3.92,3.46-3.51,1.01.26.75,5.29,7.97,3.99,3.69-.66,2.75-4.59,5.02-3.99,2.18,6.24,11.34,5.43,12.5-.98ZM88.37,300.7c-1.86-3.03-10.38-2.4-13.5-2-1.82.23-1.61-.34-1.48,2h14.99ZM942.61,298.71h-4.99v.98h4.99v-.98ZM65.39,299.71c-2.73.22-5.86-.35-8.51-.01-1.38.18-3.04.66-1.48,1.99,3.09-.44,8.28,1.51,9.99-1.98ZM116.33,302.69v-2.99h-.98v2.99h.98ZM119.33,302.69v-2.99h-.98v2.99h.98ZM124.33,299.7h-1.99v2.99h1.99v-2.99ZM127.33,299.7h-1.99v2.99h1.99v-2.99ZM132.32,299.7h-1.99v2.99h1.99v-2.99ZM210.77,299.72c-2.16,2.16-4.37,4.28-6.5,6.47-1.47,1.51-4.19,3.36-4.51,5.47,2.01-1.98,4.03-3.96,6-5.97,1.65-1.68,4.48-3.66,5-5.97ZM652.87,299.71h-2.99s0,1.98,0,1.98h1.48s1.51-1.98,1.51-1.98ZM925.62,299.7h-3.99v1.99h3.99v-1.99ZM107.35,300.7h-13.99v1h13.99v-1ZM218.25,300.7h-3.99v1.99h3.99v-1.99ZM201.78,301.71l-2.49,2.49.47.47,2.49-2.49-.47-.47ZM942.61,303.68c-.61-2.26-3.08-2.13-4.99-1.98v1.99s4.99,0,4.99,0ZM88.37,302.69h-14.99v1h14.99v-1ZM65.38,303.7c-2.15.05-4.34-.11-6.5,0-1.22.06-3.71-.76-3.48.99,2.15-.05,4.34.11,6.5,0,1.22-.06,3.71.76,3.48-.99ZM210.77,303.71c-1.66,1.67-3.39,3.27-5,4.97-.94.99-3.34,2.52-3.01,3.98,1.51-1.49,3.03-2.96,4.51-4.47,1.11-1.15,3.62-2.81,3.51-4.47ZM652.87,305.68l-1.51-1.98h-1.48s0,1.98,0,1.98h2.99ZM925.62,303.7h-3.99v.98h3.99v-.98ZM107.35,304.69h-13.99v1h13.99v-1ZM88.37,305.69h-14.99v1h14.99v-1ZM116.33,308.68v-2.99h-.98v2.99h.98ZM124.33,305.69h-1.99v2.99h1.99v-2.99ZM127.33,305.69h-1.99v2.99h1.99v-2.99ZM132.32,308.68v-1.48s-1.98-1.51-1.98-1.51v2.99s1.98,0,1.98,0ZM218.25,305.69l-3.99.49c1.08,1.54,2.14,1.74,3.99,1.5v-1.99ZM942.61,305.7h-4.99v.98h4.99v-.98ZM65.38,306.7c-2.15.05-4.34-.11-6.5,0-1.22.06-3.71-.76-3.48.99,2.15-.05,4.34.11,6.5,0,1.22-.06,3.71.76,3.48-.99ZM107.35,307.69h-13.99v1h13.99v-1ZM88.37,308.68h-14.99v1h14.99v-1ZM942.61,310.67c-.96-2.66-3.41-2.71-4.99-.49l4.99.49ZM65.38,309.69c-2.15.05-4.34-.11-6.5,0-1.22.06-3.71-.76-3.48.99,2.15-.05,4.34.11,6.5,0,1.22-.06,3.71.76,3.48-.99ZM107.35,310.68h-13.99v1h13.99v-1ZM210.76,310.68v1c.65-.33.65-.67,0-1ZM218.25,310.69l-3.99.49c1.08,1.54,2.14,1.74,3.99,1.5v-1.99ZM925.13,310.68v1c.65-.33.65-.67,0-1ZM115.84,311.68v1c.65-.33.65-.67,0-1ZM118.84,311.68v1c.65-.33.65-.67,0-1ZM123.84,311.68v1c.65-.33.65-.67,0-1ZM126.83,311.68v1c.65-.33.65-.67,0-1ZM130.83,311.68v1c.65-.33.65-.67,0-1ZM38.9,312.7l-.47.47,1.49,1.49.47-.47-1.49-1.49Z"/></g></svg>